<svg xmlns="http://www.w3.org/2000/svg" xmlns:xlink="http://www.w3.org/1999/xlink" width="43" height="44" viewBox="0 0 43 44"><defs><circle id="b" cx="12" cy="12" r="12"/><filter id="a" width="233.3%" height="233.3%" x="-66.7%" y="-58.3%" filterUnits="objectBoundingBox"><feOffset dy="2" in="SourceAlpha" result="shadowOffsetOuter1"/><feGaussianBlur in="shadowOffsetOuter1" result="shadowBlurOuter1" stdDeviation="5"/><feColorMatrix in="shadowBlurOuter1" result="shadowMatrixOuter1" values="0 0 0 0 0 0 0 0 0 0 0 0 0 0 0 0 0 0 0.0661798007 0"/><feOffset dy="-1" in="SourceAlpha" result="shadowOffsetOuter2"/><feGaussianBlur in="shadowOffsetOuter2" result="shadowBlurOuter2" stdDeviation="2.5"/><feColorMatrix in="shadowBlurOuter2" result="shadowMatrixOuter2" values="0 0 0 0 0 0 0 0 0 0 0 0 0 0 0 0 0 0 0.0909476902 0"/><feMerge><feMergeNode in="shadowMatrixOuter1"/><feMergeNode in="shadowMatrixOuter2"/></feMerge></filter><path id="c" d="M12.127.365l-.003-.01a9.195 9.195 0 0 0-.65-.158l-.076-.013a9.65 9.65 0 0 0-.991-.14A9.69 9.69 0 0 0 9.537 0 9.537 9.537 0 0 0 0 9.538a9.645 9.645 0 0 0 .067 1.09c.03.26.067.515.117.768.006.026.008.053.013.08.046.218.098.435.158.648l.01.003c1.13 4.007 4.804 6.948 9.173 6.948a9.537 9.537 0 0 0 9.537-9.537c0-4.37-2.94-8.043-6.948-9.173z"/><path id="e" d="M9.616 4.916L7.24.776a.593.593 0 0 0-1.015 0l-2.376 4.14a.595.595 0 0 1-.845.184l-1.96-1.341c-.45-.308-1.054.105-.89.61l1.632 5.037a.584.584 0 0 0 .716.366l1.253-.352.161-.308a3.705 3.705 0 0 0 1.962.352c.25-.035.428-.088.554-.159a.616.616 0 0 1 .6 0c.127.07.305.124.555.16a3.706 3.706 0 0 0 1.962-.353l.161.308 1.253.352a.584.584 0 0 0 .716-.366l1.632-5.037c.163-.505-.439-.918-.89-.61l-1.96 1.34a.595.595 0 0 1-.845-.183z"/></defs><g fill="none" fill-rule="evenodd"><g transform="translate(9.626 8)"><use fill="#000" filter="url(#a)" xlink:href="#b"/><use fill="#FFF" xlink:href="#b"/></g><path d="M10.405 8.78h22.442v22.44H10.405z"/><g transform="translate(12.088 10.462)"><mask id="d" fill="#fff"><use xlink:href="#c"/></mask><use fill="#03AC0E" xlink:href="#c"/><circle cx="3.073" cy="3.077" r="9.448" fill="#4FD15A" mask="url(#d)"/></g><path fill="#FEC100" d="M21.626 24.996c2.626 0 4.755-.276 4.755-.615 0-.34-2.129-.616-4.755-.616s-4.755.276-4.755.616c0 .34 2.129.615 4.755.615z"/><g transform="translate(14.893 13.829)"><mask id="f" fill="#fff"><use xlink:href="#e"/></mask><use fill="#FEC100" xlink:href="#e"/><circle cx=".268" cy="-.289" r="9.448" fill="#FFF0B3" mask="url(#f)"/></g><path fill="#FEC100" d="M16.87 24.38c1.525-.51 3.17-.592 4.756-.56a15.868 15.868 0 0 1 4.755.56l.161-1.098a17.299 17.299 0 0 0-4.916-.605 13.138 13.138 0 0 0-4.916.583l.16 1.12z"/></g></svg>