<svg id="Layer_1" data-name="Layer 1" xmlns="http://www.w3.org/2000/svg" xmlns:xlink="http://www.w3.org/1999/xlink" viewBox="0 0 1619.94 1147.43"><defs><style>.cls-1,.cls-22,.cls-3,.cls-60{fill:none;}.cls-2{clip-path:url(#clip-path);}.cls-3{stroke:#ffe655;stroke-miterlimit:10;stroke-width:3px;}.cls-4{clip-path:url(#clip-path-2);}.cls-5{fill:url(#linear-gradient);}.cls-6{fill:#bfe5ec;}.cls-7{fill:url(#radial-gradient);}.cls-8{fill:url(#linear-gradient-2);}.cls-9{fill:#daf0f4;}.cls-10,.cls-11,.cls-12,.cls-13,.cls-16,.cls-17,.cls-45,.cls-84,.cls-88,.cls-90{opacity:0.5;}.cls-10,.cls-11,.cls-12,.cls-13,.cls-16,.cls-17,.cls-19,.cls-23,.cls-26,.cls-28,.cls-33,.cls-35,.cls-38,.cls-39,.cls-40,.cls-41,.cls-42,.cls-45,.cls-46,.cls-47,.cls-50,.cls-51,.cls-56,.cls-61,.cls-70,.cls-79,.cls-84,.cls-88,.cls-90,.cls-97{isolation:isolate;}.cls-10{fill:url(#radial-gradient-2);}.cls-11{fill:url(#radial-gradient-3);}.cls-12{fill:url(#radial-gradient-4);}.cls-13{fill:url(#radial-gradient-5);}.cls-14{fill:url(#linear-gradient-3);}.cls-15{fill:url(#linear-gradient-4);}.cls-16{fill:url(#linear-gradient-5);}.cls-17{fill:url(#linear-gradient-6);}.cls-18{fill:url(#linear-gradient-7);}.cls-19,.cls-26,.cls-28,.cls-33,.cls-35,.cls-38,.cls-39{opacity:0.7;}.cls-19{fill:url(#linear-gradient-8);}.cls-20{fill:url(#radial-gradient-6);}.cls-21{clip-path:url(#clip-path-3);}.cls-22,.cls-60{stroke:#daf0f4;stroke-linecap:round;stroke-linejoin:round;}.cls-22{stroke-width:1.43px;}.cls-23{fill:#8fe6ec;opacity:0.47;}.cls-24{fill:url(#radial-gradient-7);}.cls-25{clip-path:url(#clip-path-4);}.cls-26{fill:url(#linear-gradient-9);}.cls-27{fill:url(#linear-gradient-10);}.cls-28{fill:url(#linear-gradient-11);}.cls-29{fill:url(#linear-gradient-12);}.cls-30{fill:url(#linear-gradient-13);}.cls-31{fill:url(#linear-gradient-14);}.cls-32{fill:url(#linear-gradient-15);}.cls-33{fill:url(#linear-gradient-16);}.cls-34{fill:url(#linear-gradient-17);}.cls-35{fill:url(#linear-gradient-18);}.cls-36{fill:url(#linear-gradient-19);}.cls-37{fill:url(#linear-gradient-20);}.cls-38{fill:url(#linear-gradient-21);}.cls-39{fill:url(#linear-gradient-22);}.cls-40,.cls-41,.cls-42{opacity:0.35;}.cls-40{fill:url(#linear-gradient-23);}.cls-41{fill:url(#linear-gradient-24);}.cls-42{fill:url(#linear-gradient-25);}.cls-43{fill:#7cc9d6;}.cls-44{fill:url(#linear-gradient-26);}.cls-45{fill:url(#linear-gradient-27);}.cls-46,.cls-47,.cls-50,.cls-51{opacity:0.4;}.cls-46{fill:url(#linear-gradient-28);}.cls-47{fill:url(#linear-gradient-29);}.cls-48{fill:url(#linear-gradient-30);}.cls-49,.cls-85{fill:#fff;}.cls-50{fill:url(#linear-gradient-31);}.cls-51{fill:url(#linear-gradient-32);}.cls-52{fill:url(#linear-gradient-33);}.cls-53{fill:url(#linear-gradient-34);}.cls-54{fill:url(#linear-gradient-35);}.cls-55{fill:url(#linear-gradient-36);}.cls-56{opacity:0.53;fill:url(#linear-gradient-37);}.cls-57{fill:url(#radial-gradient-8);}.cls-58{fill:url(#radial-gradient-9);}.cls-59{clip-path:url(#clip-path-5);}.cls-60{stroke-width:1.8px;}.cls-61{opacity:0.6;fill:url(#linear-gradient-38);}.cls-62{fill:url(#radial-gradient-10);}.cls-63{fill:url(#radial-gradient-11);}.cls-64{fill:url(#linear-gradient-39);}.cls-65,.cls-66,.cls-67,.cls-68,.cls-69,.cls-74,.cls-75,.cls-76,.cls-77,.cls-78,.cls-79,.cls-80,.cls-81,.cls-82,.cls-83,.cls-84,.cls-85,.cls-86,.cls-87,.cls-88,.cls-89,.cls-90,.cls-91,.cls-92,.cls-93,.cls-94,.cls-95,.cls-96,.cls-97{fill-rule:evenodd;}.cls-65{fill:url(#linear-gradient-40);}.cls-66{fill:url(#linear-gradient-41);}.cls-67{fill:url(#linear-gradient-42);}.cls-68{fill:url(#linear-gradient-43);}.cls-69{fill:url(#linear-gradient-44);}.cls-70{opacity:0.81;fill:url(#radial-gradient-12);}.cls-71{fill:#3a3a3a;}.cls-72{fill:#515252;}.cls-73{fill:url(#linear-gradient-45);}.cls-74{fill:#3f843f;}.cls-75{fill:url(#linear-gradient-46);}.cls-76{fill:#4a9e46;}.cls-77{fill:#60bb55;}.cls-78{fill:url(#linear-gradient-47);}.cls-79,.cls-97{opacity:0.8;}.cls-79{fill:url(#linear-gradient-48);}.cls-80{fill:#61ba56;}.cls-81{fill:#84c368;}.cls-82{fill:url(#linear-gradient-49);}.cls-83{fill:#519b4c;}.cls-84{fill:url(#linear-gradient-50);}.cls-86{fill:url(#linear-gradient-51);}.cls-87{fill:#303030;}.cls-88{fill:url(#linear-gradient-52);}.cls-89{fill:url(#linear-gradient-53);}.cls-90{fill:url(#linear-gradient-54);}.cls-91{fill:url(#radial-gradient-13);}.cls-92{fill:url(#linear-gradient-55);}.cls-93{fill:url(#linear-gradient-56);}.cls-94{fill:url(#linear-gradient-57);}.cls-95{fill:url(#radial-gradient-14);}.cls-96{fill:url(#linear-gradient-58);}.cls-97{fill:url(#linear-gradient-59);}.cls-98{fill:url(#linear-gradient-60);}.cls-99{fill:url(#linear-gradient-61);}.cls-100{fill:url(#linear-gradient-62);}.cls-101{fill:url(#linear-gradient-63);}.cls-102{fill:url(#linear-gradient-64);}.cls-103{fill:url(#linear-gradient-65);}.cls-104{fill:url(#linear-gradient-66);}.cls-105{fill:url(#linear-gradient-67);}.cls-106{fill:url(#linear-gradient-68);}.cls-107{fill:#fc0;}.cls-108{fill:url(#linear-gradient-69);}.cls-109{fill:url(#linear-gradient-70);}.cls-110{fill:url(#linear-gradient-71);}.cls-111{fill:url(#linear-gradient-72);}.cls-112{fill:#af6c15;}.cls-113{fill:#ffc466;}.cls-114{fill:#fff0b0;}.cls-115{fill:#eaa034;}.cls-116{fill:#d8881d;}.cls-117{fill:url(#linear-gradient-73);}.cls-118{fill:url(#linear-gradient-74);}.cls-119{fill:#dbac80;}.cls-120{fill:url(#linear-gradient-75);}.cls-121{fill:url(#linear-gradient-76);}.cls-122{fill:url(#linear-gradient-77);}.cls-123{fill:url(#linear-gradient-78);}.cls-124{fill:url(#linear-gradient-79);}.cls-125{fill:url(#linear-gradient-80);}.cls-126{fill:url(#linear-gradient-81);}.cls-127{fill:url(#linear-gradient-82);}.cls-128{fill:url(#linear-gradient-83);}.cls-129{fill:url(#linear-gradient-84);}.cls-130{fill:url(#linear-gradient-85);}.cls-131{fill:url(#linear-gradient-86);}</style><clipPath id="clip-path" transform="translate(258.59 145.91)"><rect class="cls-1" width="1197.91" height="860.71"/></clipPath><clipPath id="clip-path-2" transform="translate(258.59 145.91)"><path class="cls-1" d="M589.48,109.3c-120,15-389.55-118.63-470.78,104.7-18.33,50.41-15.18,99.52,30.75,192.45,71.89,145.43-58.89,168.1-41.71,256,29.35,150.13,99.24,187.4,434.15,75.77,184.79-61.6,241.81-33.69,391.27,24.23,77.71,30.11,129.22-62.51,92.63-100.89-52.77-55.36-49.94-64.7,11-101.36,102.69-61.76,94.14-261.38,12.35-284.75C893.48,231,1191.54,182,1012.67,41.54,871.9-69,709.84,94.26,589.48,109.3Z"/></clipPath><linearGradient id="linear-gradient" x1="18225.68" y1="312.42" x2="18225.68" y2="1432.3" gradientTransform="translate(19052.27 1005.91) rotate(180)" gradientUnits="userSpaceOnUse"><stop offset="0" stop-color="#98d7e1"/><stop offset="0.12" stop-color="#b7e2ea"/><stop offset="0.24" stop-color="#cfebf0"/><stop offset="0.37" stop-color="#e0f2f5"/><stop offset="0.51" stop-color="#ebf6f8"/><stop offset="0.68" stop-color="#eef7f9"/><stop offset="0.86" stop-color="#fff"/></linearGradient><radialGradient id="radial-gradient" cx="15248.08" cy="5946.45" r="84.82" gradientTransform="matrix(-0.99, 0.11, -0.09, -0.74, 16218.35, 3215.77)" gradientUnits="userSpaceOnUse"><stop offset="0.45" stop-color="#a4e1ec" stop-opacity="0"/><stop offset="0.49" stop-color="#a4e1ec" stop-opacity="0.06"/><stop offset="0.57" stop-color="#a4e1ec" stop-opacity="0.2"/><stop offset="0.67" stop-color="#a4e1ec" stop-opacity="0.44"/><stop offset="0.8" stop-color="#a4e1ec" stop-opacity="0.77"/><stop offset="0.89" stop-color="#a4e1ec"/></radialGradient><linearGradient id="linear-gradient-2" x1="15160.31" y1="5878.4" x2="15189.31" y2="5814.95" gradientTransform="translate(16645.65 -2258.1) rotate(148.84)" gradientUnits="userSpaceOnUse"><stop offset="0.02" stop-color="#f5fbfb"/><stop offset="0.1" stop-color="#f5fbfb" stop-opacity="0.96"/><stop offset="0.22" stop-color="#f5fbfb" stop-opacity="0.87"/><stop offset="0.37" stop-color="#f5fbfb" stop-opacity="0.71"/><stop offset="0.55" stop-color="#f5fbfb" stop-opacity="0.49"/><stop offset="0.75" stop-color="#f5fbfb" stop-opacity="0.21"/><stop offset="0.89" stop-color="#f5fbfb" stop-opacity="0"/></linearGradient><radialGradient id="radial-gradient-2" cx="14062.99" cy="263.4" r="371.75" gradientTransform="translate(14718.54 860) rotate(180)" gradientUnits="userSpaceOnUse"><stop offset="0" stop-color="#bfe5ec"/><stop offset="0.09" stop-color="#c1e6ed" stop-opacity="0.96"/><stop offset="0.24" stop-color="#c8e9ef" stop-opacity="0.86"/><stop offset="0.42" stop-color="#d3edf2" stop-opacity="0.69"/><stop offset="0.64" stop-color="#e2f3f6" stop-opacity="0.46"/><stop offset="0.87" stop-color="#f4fbfc" stop-opacity="0.17"/><stop offset="1" stop-color="#fff" stop-opacity="0"/></radialGradient><radialGradient id="radial-gradient-3" cx="13551.74" cy="-3.09" r="299.98" gradientTransform="matrix(1, 0, 0, -1, 0, 860)" xlink:href="#radial-gradient-2"/><radialGradient id="radial-gradient-4" cx="14926.88" cy="224.96" r="485.7" gradientTransform="matrix(1, 0, 0, -1, 0, 860)" xlink:href="#radial-gradient-2"/><radialGradient id="radial-gradient-5" cx="14230.39" cy="-133.6" r="353.94" gradientTransform="matrix(1, 0, 0, -1, 0, 860)" xlink:href="#radial-gradient-2"/><linearGradient id="linear-gradient-3" x1="17897.28" y1="695.07" x2="17897.28" y2="739.47" gradientTransform="translate(18793.68 860) rotate(180)" gradientUnits="userSpaceOnUse"><stop offset="0" stop-color="#fff" stop-opacity="0.5"/><stop offset="0.1" stop-color="#fff" stop-opacity="0.59"/><stop offset="0.28" stop-color="#fff" stop-opacity="0.74"/><stop offset="0.47" stop-color="#fff" stop-opacity="0.85"/><stop offset="0.65" stop-color="#fff" stop-opacity="0.93"/><stop offset="0.83" stop-color="#fff" stop-opacity="0.98"/><stop offset="1" stop-color="#fff"/></linearGradient><linearGradient id="linear-gradient-4" x1="-1757.12" y1="737.85" x2="-1757.12" y2="798.44" gradientTransform="matrix(1, 0, 0, -1, 2794.49, 860)" xlink:href="#linear-gradient-3"/><linearGradient id="linear-gradient-5" x1="267.85" y1="679.04" x2="267.85" y2="387.22" gradientTransform="matrix(1, 0, 0, -1, 0, 860)" gradientUnits="userSpaceOnUse"><stop offset="0" stop-color="#bfe5ec"/><stop offset="0.18" stop-color="#c0e5ec" stop-opacity="0.99"/><stop offset="0.32" stop-color="#c2e6ed" stop-opacity="0.95"/><stop offset="0.44" stop-color="#c7e8ee" stop-opacity="0.88"/><stop offset="0.55" stop-color="#cdebf0" stop-opacity="0.78"/><stop offset="0.66" stop-color="#d5eef3" stop-opacity="0.66"/><stop offset="0.76" stop-color="#dff2f5" stop-opacity="0.5"/><stop offset="0.86" stop-color="#eaf7f9" stop-opacity="0.32"/><stop offset="0.95" stop-color="#f8fcfd" stop-opacity="0.11"/><stop offset="1" stop-color="#fff" stop-opacity="0"/></linearGradient><linearGradient id="linear-gradient-6" x1="1037.01" y1="963.13" x2="1037.01" y2="646.09" gradientTransform="matrix(1, -0.03, -0.03, -1, -86.06, 1162.65)" xlink:href="#linear-gradient-5"/><linearGradient id="linear-gradient-7" x1="18662.71" y1="676.03" x2="18662.71" y2="755.74" xlink:href="#linear-gradient-3"/><linearGradient id="linear-gradient-8" x1="219.43" y1="66.38" x2="217.95" y2="259.32" gradientTransform="matrix(0, 0.94, 0.95, 0, 869.04, 319.78)" gradientUnits="userSpaceOnUse"><stop offset="0" stop-color="#98d7e1"/><stop offset="0.1" stop-color="#9ed9e3" stop-opacity="0.94"/><stop offset="0.28" stop-color="#addfe7" stop-opacity="0.8"/><stop offset="0.52" stop-color="#c6e9ee" stop-opacity="0.55"/><stop offset="0.81" stop-color="#e8f6f8" stop-opacity="0.22"/><stop offset="1" stop-color="#fff" stop-opacity="0"/></linearGradient><radialGradient id="radial-gradient-6" cx="6057.04" cy="-3620.81" r="122.93" gradientTransform="translate(7744.91 -670.09) rotate(-160.66)" gradientUnits="userSpaceOnUse"><stop offset="0" stop-color="#46d5e0"/><stop offset="1" stop-color="#46d5e0" stop-opacity="0"/></radialGradient><clipPath id="clip-path-3" transform="translate(258.59 145.91)"><path class="cls-1" d="M828.69,706.07c2.09-6.61,10.64-8.18,15.82-12.77,4.87-4.32,6.53-11.19,7.07-17.68s.23-13.14,2.26-19.32a26.9,26.9,0,0,1,10.6-13.89c3.51-2.32,7.55-3.79,11-6.2,5.89-4.12,9.58-10.6,13.66-16.52,4.85-7,10.57-13.55,17.61-18.37,4.35-3,10.41-5.19,14.66-2.07,2.8,2.07,3.78,5.81,4.08,9.28.64,7.4-.91,14.82-.8,22.25.14,9.55,2.94,19.6-.94,28.33-3.1,7-9.85,11.54-16.45,15.39-3.77,2.2-7.71,4.39-10.26,7.92-2.29,3.17-3.22,7.08-4.88,10.62a28.12,28.12,0,0,1-17.24,14.81c-5.35,1.59-11.81,1.95-15,6.54-2.51,3.61-1.92,8.57-3.79,12.55-2.63,5.61-9.42,7.94-15.6,8.36S828,734.84,822,736.56c.83.1,8.3-12.77,8.57-14.3C831.55,716.82,826.91,711.71,828.69,706.07Z"/></clipPath><radialGradient id="radial-gradient-7" cx="6062.3" cy="-3612.21" r="72.67" gradientTransform="translate(7744.91 -670.09) rotate(-160.66)" gradientUnits="userSpaceOnUse"><stop offset="0" stop-color="#72dfe7"/><stop offset="1" stop-color="#72dfe7" stop-opacity="0"/></radialGradient><clipPath id="clip-path-4" transform="translate(258.59 145.91)"><path class="cls-1" d="M880.07,758.09A19.66,19.66,0,0,0,894.41,747c2.27-5,2.61-11.31,6.9-14.77,2.42-2,5.63-2.56,8.53-3.69A37.54,37.54,0,0,0,920.07,722a24.64,24.64,0,0,0,6.31-7.14c1.47-2.83,1.91-6.38.42-9.2-1.94-3.66-6.56-5.15-10.68-4.81s-8,2.1-11.89,3.42-8.25,2.22-12.14.81c-2.33-.84-4.3-2.45-6.51-3.58a16.8,16.8,0,0,0-15.71.28c-8.86,5.1-11,17.36-19,23.66-2.83,2.23-6.33,3.64-8.72,6.33s-7.17,8-6.42,11.53a11.66,11.66,0,0,0,6.48,8.07c5.63,2.55,16.11-2,21.12,1.4C868.7,756.34,873.14,759.28,880.07,758.09Z"/></clipPath><linearGradient id="linear-gradient-9" x1="273.54" y1="264.88" x2="272.62" y2="384.38" gradientTransform="matrix(1, 0, 0, -1, 258.59, 1005.91)" xlink:href="#linear-gradient-8"/><linearGradient id="linear-gradient-10" x1="17871.73" y1="-1595.64" x2="17757.21" y2="-1600.95" gradientTransform="translate(18294.75 -941) rotate(180)" gradientUnits="userSpaceOnUse"><stop offset="0" stop-color="#48a9b9"/><stop offset="1" stop-color="#84d1de"/></linearGradient><linearGradient id="linear-gradient-11" x1="17753.75" y1="-1527.15" x2="17781.02" y2="-1527.15" gradientTransform="translate(18048.35 -1014.11) rotate(180)" xlink:href="#linear-gradient-8"/><linearGradient id="linear-gradient-12" x1="17726.1" y1="-1584.75" x2="17726.1" y2="-1654.62" gradientTransform="translate(1913.57 18239.33) rotate(-90)" gradientUnits="userSpaceOnUse"><stop offset="0" stop-color="#98d7e1"/><stop offset="0.11" stop-color="#a6dce5"/><stop offset="0.51" stop-color="#d6eff3"/><stop offset="0.82" stop-color="#f4fbfc"/><stop offset="1" stop-color="#fff"/></linearGradient><linearGradient id="linear-gradient-13" x1="17800.02" y1="-1584.92" x2="17800.02" y2="-1654.79" gradientTransform="translate(18294.76 -941.4) rotate(180)" xlink:href="#linear-gradient-12"/><linearGradient id="linear-gradient-14" x1="17810" y1="-1570.37" x2="17810" y2="-1606.22" gradientTransform="translate(18306.94 -868.2) rotate(180)" gradientUnits="userSpaceOnUse"><stop offset="0" stop-color="#98d7e1"/><stop offset="0.18" stop-color="#a5dce5"/><stop offset="0.52" stop-color="#c6e9ee"/><stop offset="0.97" stop-color="#fcfefe"/><stop offset="1" stop-color="#fff"/></linearGradient><linearGradient id="linear-gradient-15" x1="17823.67" y1="-1557.79" x2="17782.61" y2="-1557.79" gradientTransform="translate(1838.55 18227.86) rotate(-90)" xlink:href="#linear-gradient-10"/><linearGradient id="linear-gradient-16" x1="17770.67" y1="-1497.47" x2="17798.8" y2="-1497.47" gradientTransform="translate(18048.35 -1014.11) rotate(180)" xlink:href="#linear-gradient-8"/><linearGradient id="linear-gradient-17" x1="17744.63" y1="-1547.81" x2="17744.63" y2="-1608.51" gradientTransform="translate(1851.96 18214.52) rotate(-90)" xlink:href="#linear-gradient-14"/><linearGradient id="linear-gradient-18" x1="17714.96" y1="-1495.05" x2="17790.51" y2="-1495.05" gradientTransform="translate(18048.35 -1014.11) rotate(180)" xlink:href="#linear-gradient-8"/><linearGradient id="linear-gradient-19" x1="17754.15" y1="-1532.63" x2="17754.15" y2="-1557.01" xlink:href="#linear-gradient-14"/><linearGradient id="linear-gradient-20" x1="17735.26" y1="-1570.37" x2="17735.26" y2="-1606.22" xlink:href="#linear-gradient-14"/><linearGradient id="linear-gradient-21" x1="17695.95" y1="-1541.73" x2="17755.68" y2="-1541.73" gradientTransform="translate(18048.35 -1014.11) rotate(180)" xlink:href="#linear-gradient-8"/><linearGradient id="linear-gradient-22" x1="17770.15" y1="-1539.89" x2="17829.89" y2="-1539.89" gradientTransform="translate(18048.35 -1014.11) rotate(180)" xlink:href="#linear-gradient-8"/><linearGradient id="linear-gradient-23" x1="17760.83" y1="-1538.77" x2="17760.83" y2="-1543.73" xlink:href="#linear-gradient-14"/><linearGradient id="linear-gradient-24" x1="17809.98" y1="-1578.93" x2="17809.98" y2="-1583.33" xlink:href="#linear-gradient-14"/><linearGradient id="linear-gradient-25" x1="17735.78" y1="-1578.93" x2="17735.78" y2="-1583.33" xlink:href="#linear-gradient-14"/><linearGradient id="linear-gradient-26" x1="1020.76" y1="455.73" x2="1027.25" y2="329.68" gradientTransform="matrix(1, 0, 0, -1, 258.59, 1005.91)" gradientUnits="userSpaceOnUse"><stop offset="0" stop-color="#bae2e8"/><stop offset="0.32" stop-color="#bde3e9"/><stop offset="0.55" stop-color="#c6e8ec"/><stop offset="0.75" stop-color="#d6eff2"/><stop offset="0.94" stop-color="#edf9fa"/><stop offset="1" stop-color="#f5fdfd"/></linearGradient><linearGradient id="linear-gradient-27" x1="1017.38" y1="491.67" x2="1019.2" y2="429.43" gradientTransform="matrix(1, 0, 0, -1, 0, 860)" gradientUnits="userSpaceOnUse"><stop offset="0" stop-color="#fff"/><stop offset="0.71" stop-color="#cfcdcd"/><stop offset="1" stop-color="#7a7878"/></linearGradient><linearGradient id="linear-gradient-28" x1="1054.23" y1="363.5" x2="1115.08" y2="395.34" gradientTransform="matrix(1, 0, 0, -1, 0, 860)" gradientUnits="userSpaceOnUse"><stop offset="0" stop-color="#fff" stop-opacity="0"/><stop offset="0.1" stop-color="#fdfefe" stop-opacity="0.13"/><stop offset="0.35" stop-color="#f7fcfd" stop-opacity="0.43"/><stop offset="0.58" stop-color="#f2fbfc" stop-opacity="0.68"/><stop offset="0.77" stop-color="#effafb" stop-opacity="0.85"/><stop offset="0.91" stop-color="#edf9fa" stop-opacity="0.96"/><stop offset="1" stop-color="#ecf9fa"/></linearGradient><linearGradient id="linear-gradient-29" x1="1047.93" y1="380.6" x2="1109.92" y2="413.04" xlink:href="#linear-gradient-28"/><linearGradient id="linear-gradient-30" x1="1117.17" y1="417.6" x2="1045.15" y2="365.31" gradientTransform="matrix(1, 0, 0, -1, 0, 860)" gradientUnits="userSpaceOnUse"><stop offset="0.06" stop-color="#16737a" stop-opacity="0"/><stop offset="0.19" stop-color="#16737a" stop-opacity="0.04"/><stop offset="0.36" stop-color="#16737a" stop-opacity="0.17"/><stop offset="0.54" stop-color="#16737a" stop-opacity="0.38"/><stop offset="0.74" stop-color="#16737a" stop-opacity="0.67"/><stop offset="0.93" stop-color="#16737a"/></linearGradient><linearGradient id="linear-gradient-31" x1="925.61" y1="385.4" x2="981.5" y2="414.65" xlink:href="#linear-gradient-28"/><linearGradient id="linear-gradient-32" x1="931.95" y1="367.82" x2="989.16" y2="397.76" gradientTransform="matrix(1, 0, 0, -1, 258.59, 1005.91)" xlink:href="#linear-gradient-28"/><linearGradient id="linear-gradient-33" x1="986.14" y1="414.53" x2="914.12" y2="362.25" xlink:href="#linear-gradient-30"/><linearGradient id="linear-gradient-34" x1="1051.27" y1="342" x2="976.49" y2="431.07" xlink:href="#linear-gradient-30"/><linearGradient id="linear-gradient-35" x1="1017.49" y1="524.63" x2="1010" y2="458.93" gradientTransform="matrix(1, 0, 0, -1, 0, 860)" gradientUnits="userSpaceOnUse"><stop offset="0" stop-color="#bae2e8"/><stop offset="1" stop-color="#fff"/></linearGradient><linearGradient id="linear-gradient-36" x1="1005.63" y1="483.88" x2="1000.19" y2="425.63" xlink:href="#linear-gradient-35"/><linearGradient id="linear-gradient-37" x1="1028.15" y1="503.6" x2="1027.73" y2="460.66" gradientTransform="matrix(1, 0, 0, -1, 0, 860)" gradientUnits="userSpaceOnUse"><stop offset="0" stop-color="#fff"/><stop offset="1" stop-color="#f5f59f"/></linearGradient><radialGradient id="radial-gradient-8" cx="18233.79" cy="-221.99" r="100.06" gradientTransform="translate(9042.94 -15250.26) rotate(119.39)" gradientUnits="userSpaceOnUse"><stop offset="0.24" stop-color="#a4e1ec"/><stop offset="0.28" stop-color="#a4e1ec" stop-opacity="0.94"/><stop offset="0.37" stop-color="#a4e1ec" stop-opacity="0.8"/><stop offset="0.49" stop-color="#a4e1ec" stop-opacity="0.56"/><stop offset="0.63" stop-color="#a4e1ec" stop-opacity="0.23"/><stop offset="0.73" stop-color="#a4e1ec" stop-opacity="0"/></radialGradient><radialGradient id="radial-gradient-9" cx="18264.32" cy="-114.81" r="68.49" gradientTransform="translate(9042.94 -15250.26) rotate(119.39)" xlink:href="#linear-gradient-2"/><clipPath id="clip-path-5" transform="translate(258.59 145.91)"><path class="cls-1" d="M373.89,834.05l-10.28-.65c-8.51-.55-17.09-1.1-25.33-3.27-4.11-1.08-8.66-3.13-9.72-7.24-.89-3.43,1.06-6.95,3.37-9.65,1.18-1.38,2.55-2.86,2.53-4.68,0-2.41-2.47-4-4.72-4.9-4.93-1.91-10.27-2.39-15.53-2.94s-10.61-1.21-15.42-3.41-9.06-6.21-10.25-11.36c-.87-3.75,0-7.72,1.44-11.27a109.25,109.25,0,0,1,5.43-10.19,9.51,9.51,0,0,0,1.56-5.06c-.18-2.83-2.59-4.95-4.94-6.53-6.91-4.65-14.08-10.06-18.9-16.85s-6.79-16.28-2.63-23.49c4.26-7.4,13.73-10.36,22.24-9.75a25.24,25.24,0,0,1,8,1.77c7,3,11.56,10,13.65,17.32,1.62,5.65,2.13,11.88,5.69,16.56,3.95,5.19,10.67,7.23,16.81,9.43s12.71,5.44,15,11.55c1.75,4.63.57,9.8-.62,14.61-.85,3.42-1.43,7.1.47,10.08s5.6,3.83,9,4.23,7.09.6,9.8,2.71a11,11,0,0,1,3.8,7.26,32.67,32.67,0,0,1-.26,8.38A114.18,114.18,0,0,0,373.89,834.05Z"/></clipPath><linearGradient id="linear-gradient-38" x1="18266.39" y1="-131.09" x2="18270.13" y2="-201.71" gradientTransform="translate(9042.94 -15250.26) rotate(119.39)" gradientUnits="userSpaceOnUse"><stop offset="0.01" stop-color="#fff" stop-opacity="0"/><stop offset="1"/></linearGradient><radialGradient id="radial-gradient-10" cx="18228.03" cy="-231.2" r="69.18" gradientTransform="translate(9042.94 -15250.26) rotate(119.39)" gradientUnits="userSpaceOnUse"><stop offset="0" stop-color="#a4e1ec"/><stop offset="0.04" stop-color="#a4e1ec" stop-opacity="0.94"/><stop offset="0.12" stop-color="#a4e1ec" stop-opacity="0.8"/><stop offset="0.23" stop-color="#a4e1ec" stop-opacity="0.56"/><stop offset="0.36" stop-color="#a4e1ec" stop-opacity="0.23"/><stop offset="0.44" stop-color="#a4e1ec" stop-opacity="0"/></radialGradient><radialGradient id="radial-gradient-11" cx="18202.28" cy="-155.32" r="69.18" gradientTransform="translate(9042.94 -15250.26) rotate(119.39)" xlink:href="#linear-gradient-2"/><linearGradient id="linear-gradient-39" x1="18217.44" y1="-174.11" x2="18236.76" y2="-231.44" xlink:href="#linear-gradient-38"/><linearGradient id="linear-gradient-40" x1="2770.8" y1="4325.34" x2="2791.05" y2="4325.34" gradientTransform="matrix(0.89, -0.45, -0.45, -0.89, -479.38, 5710.19)" gradientUnits="userSpaceOnUse"><stop offset="0" stop-color="#ffa110"/><stop offset="1" stop-color="#ffc510"/></linearGradient><linearGradient id="linear-gradient-41" x1="2786.81" y1="4362.9" x2="2800.67" y2="4362.9" xlink:href="#linear-gradient-40"/><linearGradient id="linear-gradient-42" x1="2807.36" y1="4339.9" x2="2821.22" y2="4339.9" xlink:href="#linear-gradient-40"/><linearGradient id="linear-gradient-43" x1="4895.15" y1="3773.84" x2="4909.02" y2="3773.84" gradientTransform="matrix(0.99, 0.17, 0.17, -0.99, -5202.76, 3476.48)" xlink:href="#linear-gradient-40"/><linearGradient id="linear-gradient-44" x1="6034.29" y1="4070.89" x2="6044.39" y2="4070.89" gradientTransform="matrix(0.85, 0.53, 0.53, -0.85, -6987.56, 896.26)" xlink:href="#linear-gradient-40"/><radialGradient id="radial-gradient-12" cx="1409.38" cy="131.17" r="89.66" gradientTransform="matrix(1.32, 0, 0, -0.28, -1711.49, 751.69)" gradientUnits="userSpaceOnUse"><stop offset="0.12" stop-color="#515252" stop-opacity="0.7"/><stop offset="0.97" stop-color="#515252" stop-opacity="0"/></radialGradient><linearGradient id="linear-gradient-45" x1="156.16" y1="315.64" x2="179.84" y2="270.71" gradientTransform="matrix(1, 0, 0, -1, 0, 860)" gradientUnits="userSpaceOnUse"><stop offset="0" stop-color="#fff" stop-opacity="0"/><stop offset="0.97" stop-color="#fff"/></linearGradient><linearGradient id="linear-gradient-46" x1="83.43" y1="300.63" x2="100.93" y2="122.34" gradientTransform="matrix(1, 0, 0, -1, 0, 860)" gradientUnits="userSpaceOnUse"><stop offset="0" stop-color="#519b4c" stop-opacity="0"/><stop offset="1" stop-color="#519b4c"/></linearGradient><linearGradient id="linear-gradient-47" x1="160.83" y1="241.05" x2="103.66" y2="86.53" xlink:href="#linear-gradient-46"/><linearGradient id="linear-gradient-48" x1="104.34" y1="311.04" x2="235.99" y2="273.3" gradientTransform="matrix(1, 0, 0, -1, 0, 860)" gradientUnits="userSpaceOnUse"><stop offset="0.2" stop-color="#fff" stop-opacity="0"/><stop offset="0.97" stop-color="#fff"/></linearGradient><linearGradient id="linear-gradient-49" x1="157.95" y1="167.08" x2="91.97" y2="85.04" xlink:href="#linear-gradient-46"/><linearGradient id="linear-gradient-50" x1="163.89" y1="238.16" x2="234.54" y2="238.16" gradientTransform="matrix(1, 0, 0, -1, 0, 860)" gradientUnits="userSpaceOnUse"><stop offset="0" stop-color="#3f843f"/><stop offset="1" stop-color="#519b4c"/></linearGradient><linearGradient id="linear-gradient-51" x1="165.05" y1="217.25" x2="203.44" y2="237.81" gradientTransform="matrix(1, 0, 0, -1, 0, 860)" gradientUnits="userSpaceOnUse"><stop offset="0" stop-color="#e5e3e3"/><stop offset="1" stop-color="#e5e3e3" stop-opacity="0"/></linearGradient><linearGradient id="linear-gradient-52" x1="88.13" y1="227.84" x2="164.72" y2="227.84" xlink:href="#linear-gradient-50"/><linearGradient id="linear-gradient-53" x1="92.95" y1="222.07" x2="157.57" y2="222.07" xlink:href="#linear-gradient-51"/><linearGradient id="linear-gradient-54" x1="173.64" y1="197.46" x2="160.56" y2="178.29" xlink:href="#linear-gradient-50"/><radialGradient id="radial-gradient-13" cx="159.15" cy="10.65" r="33.51" gradientTransform="matrix(1, 0.04, 0.04, -1, 24.85, 670.1)" gradientUnits="userSpaceOnUse"><stop offset="0.15" stop-color="#fff100"/><stop offset="1" stop-color="#f6921e"/></radialGradient><linearGradient id="linear-gradient-55" x1="142.24" y1="-4.82" x2="132.65" y2="10.99" gradientTransform="matrix(1, 0.04, 0.04, -1, 24.85, 670.1)" gradientUnits="userSpaceOnUse"><stop offset="0" stop-color="#fff100" stop-opacity="0"/><stop offset="1" stop-color="#f6921e"/></linearGradient><linearGradient id="linear-gradient-56" x1="161.35" y1="18.73" x2="132.57" y2="-0.07" gradientTransform="matrix(1, 0.04, 0.04, -1, 24.85, 670.1)" gradientUnits="userSpaceOnUse"><stop offset="0" stop-color="#f27f82"/><stop offset="1" stop-color="#b33840"/></linearGradient><linearGradient id="linear-gradient-57" x1="150.77" y1="13.2" x2="143.34" y2="8.34" gradientTransform="matrix(1, 0.04, 0.04, -1, 24.85, 670.1)" gradientUnits="userSpaceOnUse"><stop offset="0" stop-color="#f27f82"/><stop offset="1" stop-color="#be4c51"/></linearGradient><radialGradient id="radial-gradient-14" cx="154.95" cy="41.69" r="38.2" gradientTransform="matrix(1, 0.04, 0.04, -1, 24.85, 670.1)" gradientUnits="userSpaceOnUse"><stop offset="0.44" stop-color="#ffe800"/><stop offset="0.59" stop-color="#fdd507"/><stop offset="0.89" stop-color="#f8a517"/><stop offset="1" stop-color="#f6921e"/></radialGradient><linearGradient id="linear-gradient-58" x1="199.59" y1="227.83" x2="144.5" y2="181.05" gradientTransform="matrix(1, 0, 0, -1, 0, 860)" xlink:href="#linear-gradient-55"/><linearGradient id="linear-gradient-59" x1="173.03" y1="199.35" x2="178.46" y2="219.82" gradientTransform="matrix(1, 0, 0, -1, 0, 860)" gradientUnits="userSpaceOnUse"><stop offset="0" stop-color="#fff" stop-opacity="0"/><stop offset="1" stop-color="#fff"/></linearGradient><linearGradient id="linear-gradient-60" x1="211.99" y1="189.67" x2="237.14" y2="158.52" xlink:href="#linear-gradient-46"/><linearGradient id="linear-gradient-61" x1="2705.98" y1="4819.95" x2="2725.61" y2="4819.95" gradientTransform="matrix(0.57, -0.82, -0.82, -0.57, 2673.38, 5621.96)" gradientUnits="userSpaceOnUse"><stop offset="0" stop-color="#e88f00"/><stop offset="1" stop-color="#cc7d00"/></linearGradient><linearGradient id="linear-gradient-62" x1="2718.56" y1="4831.38" x2="2718.56" y2="4817.16" gradientTransform="matrix(1, 0, 0, -1, -2443.68, 5457.14)" gradientUnits="userSpaceOnUse"><stop offset="0" stop-color="#fc0"/><stop offset="1" stop-color="#e88f00"/></linearGradient><linearGradient id="linear-gradient-63" x1="2730.52" y1="4821.86" x2="2730.52" y2="4815.54" gradientTransform="matrix(0.57, -0.82, -0.82, -0.57, 2673.38, 5621.96)" xlink:href="#linear-gradient-62"/><linearGradient id="linear-gradient-64" x1="2730.99" y1="4818.87" x2="2730.99" y2="4811.76" gradientTransform="matrix(0.57, -0.82, -0.82, -0.57, 2673.38, 5621.96)" xlink:href="#linear-gradient-62"/><linearGradient id="linear-gradient-65" x1="2707.9" y1="4832.5" x2="2707.9" y2="4825.85" gradientTransform="matrix(0.57, -0.82, -0.82, -0.57, 2673.38, 5621.96)" xlink:href="#linear-gradient-62"/><linearGradient id="linear-gradient-66" x1="2640.78" y1="4829.91" x2="2671.12" y2="4829.91" gradientTransform="matrix(0.57, -0.82, -0.82, -0.57, 2673.18, 5624.11)" xlink:href="#linear-gradient-62"/><linearGradient id="linear-gradient-67" x1="2648.34" y1="4829.93" x2="2678.67" y2="4829.93" gradientTransform="matrix(0.57, -0.82, -0.82, -0.57, 2673.18, 5624.11)" xlink:href="#linear-gradient-62"/><linearGradient id="linear-gradient-68" x1="2638.3" y1="4829.59" x2="2672.43" y2="4829.59" gradientTransform="matrix(0.57, -0.82, -0.82, -0.57, 2931.97, 5767.87)" xlink:href="#linear-gradient-62"/><linearGradient id="linear-gradient-69" x1="2609.33" y1="4829.58" x2="2675.44" y2="4829.58" gradientTransform="matrix(0.57, -0.82, -0.82, -0.57, 2931.97, 5767.87)" xlink:href="#linear-gradient-62"/><linearGradient id="linear-gradient-70" x1="2597.92" y1="4829.61" x2="2632.28" y2="4829.61" gradientTransform="matrix(0.57, -0.82, -0.82, -0.57, 2673.38, 5621.96)" xlink:href="#linear-gradient-62"/><linearGradient id="linear-gradient-71" x1="2132.49" y1="4547.89" x2="2103.78" y2="4545.77" gradientTransform="matrix(0.66, -0.75, -0.75, -0.66, 2248.9, 5268.45)" xlink:href="#linear-gradient-62"/><linearGradient id="linear-gradient-72" x1="3214.46" y1="4016.73" x2="3231.77" y2="3979.76" gradientTransform="matrix(1.27, -0.82, -0.73, -1.13, -1052.61, 7322.04)" xlink:href="#linear-gradient"/><linearGradient id="linear-gradient-73" x1="401.98" y1="4772.17" x2="435.31" y2="4772.17" gradientTransform="matrix(0.96, -0.27, -0.27, -0.96, 1109.82, 5051.79)" gradientUnits="userSpaceOnUse"><stop offset="0" stop-color="#2c793c"/><stop offset="1" stop-color="#43b649"/></linearGradient><linearGradient id="linear-gradient-74" x1="402.08" y1="4773.82" x2="434.65" y2="4773.82" gradientTransform="matrix(0.96, -0.27, -0.27, -0.96, 1109.82, 5051.79)" gradientUnits="userSpaceOnUse"><stop offset="0" stop-color="#8bc53f"/><stop offset="1" stop-color="#62bc48"/></linearGradient><linearGradient id="linear-gradient-75" x1="12076.81" y1="4872.97" x2="12084.8" y2="4851.54" gradientTransform="matrix(-1, 0.04, -0.04, -1, 12487.29, 4748.4)" gradientUnits="userSpaceOnUse"><stop offset="0" stop-color="#fae6c5"/><stop offset="1" stop-color="#fae6c5" stop-opacity="0"/></linearGradient><linearGradient id="linear-gradient-76" x1="12073.89" y1="4871.89" x2="12081.88" y2="4850.45" xlink:href="#linear-gradient-75"/><linearGradient id="linear-gradient-77" x1="12083.58" y1="4875.51" x2="12091.57" y2="4854.07" xlink:href="#linear-gradient-75"/><linearGradient id="linear-gradient-78" x1="12071.72" y1="4884.92" x2="12070.44" y2="4879.98" gradientTransform="matrix(-1, 0.04, -0.04, -1, 12487.29, 4748.4)" gradientUnits="userSpaceOnUse"><stop offset="0" stop-color="#fff"/><stop offset="0.78" stop-color="#fff" stop-opacity="0"/></linearGradient><linearGradient id="linear-gradient-79" x1="632.54" y1="-2107.91" x2="685.5" y2="-2107.91" gradientTransform="matrix(0.89, 0.45, 0.45, -0.89, 1337.84, -2073.12)" xlink:href="#linear-gradient-73"/><linearGradient id="linear-gradient-80" x1="632.7" y1="-2105.27" x2="684.47" y2="-2105.27" gradientTransform="matrix(0.89, 0.45, 0.45, -0.89, 1337.84, -2073.12)" xlink:href="#linear-gradient-74"/><linearGradient id="linear-gradient-81" x1="10231.58" y1="-1756.08" x2="10244.28" y2="-1790.14" gradientTransform="translate(9912.71 5406.73) rotate(-139.46)" xlink:href="#linear-gradient-75"/><linearGradient id="linear-gradient-82" x1="10226.97" y1="-1757.8" x2="10239.67" y2="-1791.86" gradientTransform="translate(9912.71 5406.73) rotate(-139.46)" xlink:href="#linear-gradient-75"/><linearGradient id="linear-gradient-83" x1="10242.28" y1="-1752.1" x2="10254.99" y2="-1786.16" gradientTransform="translate(9912.71 5406.73) rotate(-139.46)" xlink:href="#linear-gradient-75"/><linearGradient id="linear-gradient-84" x1="10251.3" y1="-1746.62" x2="10249.27" y2="-1754.48" gradientTransform="translate(9912.71 5406.73) rotate(-139.46)" xlink:href="#linear-gradient-78"/><linearGradient id="linear-gradient-85" x1="-883.37" y1="-979.8" x2="-988.98" y2="-944.79" gradientTransform="matrix(0.87, -0.46, -0.5, -0.96, 1388.99, -654.98)" xlink:href="#linear-gradient"/><linearGradient id="linear-gradient-86" x1="-13.2" y1="1504.57" x2="-74.24" y2="1524.81" gradientTransform="matrix(0.75, -0.53, -0.48, -0.68, 1794.62, 1642.86)" xlink:href="#linear-gradient"/></defs><title>tokopedia login background</title><g class="cls-2"><g id="Layer_1-2" data-name="Layer 1"><rect class="cls-3" x="172.98" y="1.5" width="1410.86" height="1144.43"/><g class="cls-4"><rect class="cls-5" x="161.4" y="38.3" width="1330.38" height="965.12"/><path class="cls-6" d="M619.4,589c-1.47-5.4-3.75-11.22-8.77-13.7-5.85-2.89-13.55-.21-19-3.86-5.88-4-5.52-12.83-9.57-18.66A15.87,15.87,0,0,0,568,546.45,20.54,20.54,0,0,0,554.1,554c-2.5,3-4.23,6.64-6.81,9.59s-6.47,5.27-10.3,4.41a29.31,29.31,0,0,1-5-2.12c-7.31-3.11-16.82,1-19.55,8.48-1.68,4.6-1.45,10.58-5.61,13.16-3.88,2.42-9.23.15-13.39,2-3.37,1.53-5.08,5.57-4.72,9.24s-.26,14.75,2.22,17.48a19.6,19.6,0,0,0,6.56,5c4.82,2.09,16.75,1.76,21.93.94l45.9-7.3c4.62-.73,9.25-1.47,13.92-1.74,4.41-.26,8.83-.11,13.24-.16a143.65,143.65,0,0,0,18.88-1.45C619.68,610.36,621.86,598.05,619.4,589Z" transform="translate(258.59 145.91)"/><path class="cls-7" d="M619.4,589c-1.47-5.4-3.75-11.22-8.77-13.7-5.85-2.89-13.55-.21-19-3.86-5.88-4-5.52-12.83-9.57-18.66A15.87,15.87,0,0,0,568,546.45,20.54,20.54,0,0,0,554.1,554c-2.5,3-4.23,6.64-6.81,9.59s-6.47,5.27-10.3,4.41a29.31,29.31,0,0,1-5-2.12c-7.31-3.11-16.82,1-19.55,8.48-1.68,4.6-1.45,10.58-5.61,13.16-3.88,2.42-9.23.15-13.39,2-3.37,1.53-5.08,5.57-4.72,9.24s-.26,14.75,2.22,17.48a19.6,19.6,0,0,0,6.56,5c4.82,2.09,16.75,1.76,21.93.94l45.9-7.3c4.62-.73,9.25-1.47,13.92-1.74,4.41-.26,8.83-.11,13.24-.16a143.65,143.65,0,0,0,18.88-1.45C619.68,610.36,621.86,598.05,619.4,589Z" transform="translate(258.59 145.91)"/><path class="cls-8" d="M619.4,589c-1.47-5.4-3.75-11.22-8.77-13.7-5.85-2.89-13.55-.21-19-3.86-5.88-4-5.52-12.83-9.57-18.66A15.87,15.87,0,0,0,568,546.45,20.54,20.54,0,0,0,554.1,554c-2.5,3-4.23,6.64-6.81,9.59s-6.47,5.27-10.3,4.41a29.31,29.31,0,0,1-5-2.12c-7.31-3.11-16.82,1-19.55,8.48-1.68,4.6-1.45,10.58-5.61,13.16-3.88,2.42-9.23.15-13.39,2-3.37,1.53-5.08,5.57-4.72,9.24s-.26,14.75,2.22,17.48a19.6,19.6,0,0,0,6.56,5c4.82,2.09,16.75,1.76,21.93.94l45.9-7.3c4.62-.73,9.25-1.47,13.92-1.74,4.41-.26,8.83-.11,13.24-.16a143.65,143.65,0,0,0,18.88-1.45C619.68,610.36,621.86,598.05,619.4,589Z" transform="translate(258.59 145.91)"/><path class="cls-9" d="M567.92,665.56c-10.93-6.14-18.45-14-22.94-22.82,73.09-64.6,210.65-157.43,397.64-157.43,209.28,0,354.91,104.14,418.33,160.41,2.88,33-9.65,60.18-44.44,62.84-73.47,5.61-180.76,86.17-293.7,82.41-95.22-3.16-134.13-74.43-227.27-46.14C723.66,766.66,626,698.2,567.92,665.56Z" transform="translate(258.59 145.91)"/><path class="cls-10" d="M567.92,665.56c-10.93-6.14-18.45-14-22.94-22.82,73.09-64.6,210.65-157.43,397.64-157.43,209.28,0,354.91,104.14,418.33,160.41,2.88,33-9.65,60.18-44.44,62.84-73.47,5.61-180.76,86.17-293.7,82.41-95.22-3.16-134.13-74.43-227.27-46.14C723.66,766.66,626,698.2,567.92,665.56Z" transform="translate(258.59 145.91)"/><path class="cls-11" d="M567.92,665.56c-10.93-6.14-18.45-14-22.94-22.82,73.09-64.6,210.65-157.43,397.64-157.43,209.28,0,354.91,104.14,418.33,160.41,2.88,33-9.65,60.18-44.44,62.84-73.47,5.61-180.76,86.17-293.7,82.41-95.22-3.16-134.13-74.43-227.27-46.14C723.66,766.66,626,698.2,567.92,665.56Z" transform="translate(258.59 145.91)"/><path class="cls-9" d="M-235.65,665.56c-10.93-6.14-18.45-14-22.94-22.82,73.09-64.6,210.65-157.43,397.64-157.43,209.28,0,497.89,100.46,564,213.14,2.87,33-61.51,54.86-96.3,57.52-73.48,5.62-334.14,160.85-444.93,138.59C90,880.13,14.2,759.29-78.93,787.58-150.81,809.41-177.58,698.2-235.65,665.56Z" transform="translate(258.59 145.91)"/><path class="cls-12" d="M-235.65,665.56c-10.93-6.14-18.45-14-22.94-22.82,73.09-64.6,210.65-157.43,397.64-157.43,209.28,0,497.89,100.46,564,213.14,2.87,33-61.51,54.86-96.3,57.52-73.48,5.62-334.14,160.85-444.93,138.59C90,880.13,14.2,759.29-78.93,787.58-150.81,809.41-177.58,698.2-235.65,665.56Z" transform="translate(258.59 145.91)"/><path class="cls-13" d="M-235.65,665.56c-10.93-6.14-18.45-14-22.94-22.82,73.09-64.6,210.65-157.43,397.64-157.43,209.28,0,497.89,100.46,564,213.14,2.87,33-61.51,54.86-96.3,57.52-73.48,5.62-334.14,160.85-444.93,138.59C90,880.13,14.2,759.29-78.93,787.58-150.81,809.41-177.58,698.2-235.65,665.56Z" transform="translate(258.59 145.91)"/><path id="_Path_" data-name=" Path " class="cls-14" d="M962.71,163.45h-144c6.84-1.15,13.53-3.73,20.37-4.88,1.69-.28,3.56-.68,4.56-2.07s.79-3.17.89-4.82c.48-7.56,9-13.42,16.26-11.14a12.4,12.4,0,0,0,3.39.9c4.4.13,5.88-5.63,7.66-9.66a16.85,16.85,0,0,1,30.36-1c.74,1.41,1.38,3,2.78,3.77a6.48,6.48,0,0,0,3.23.44c9.38-.38,20.58-.54,25.94,7.17,2.19,3.16,3.22,7.48,6.65,9.21,1.52.76,3.28.87,4.91,1.35,2.85.84,5.21,2.78,7.71,4.39a38.4,38.4,0,0,0,20.67,6.17C967.83,163.54,968.93,163.16,962.71,163.45Z" transform="translate(258.59 145.91)"/><path id="_Path_2" data-name=" Path 2" class="cls-15" d="M946.84,120.13h196.53c-9.32-1.58-18.45-5.09-27.78-6.66-2.31-.39-4.87-.93-6.23-2.84s-1.07-4.32-1.21-6.57c-.65-10.31-12.35-18.31-22.19-15.2a17.1,17.1,0,0,1-4.61,1.24c-6,.17-8-7.69-10.46-13.19a23,23,0,0,0-41.43-1.41c-1,1.92-1.88,4.14-3.8,5.14a8.51,8.51,0,0,1-4.4.61c-12.8-.51-28.07-.73-35.39,9.79-3,4.31-4.39,10.19-9.07,12.55-2.08,1-4.48,1.2-6.71,1.85-3.88,1.15-7.11,3.79-10.51,6a52.57,52.57,0,0,1-28.2,8.41C939.86,120.25,938.35,119.73,946.84,120.13Z" transform="translate(258.59 145.91)"/><path class="cls-16" d="M571.35,264.69,515,258.5l-4.77,51.62-100-4.76,2.39-46.86-58-.79v31.77L322,291.06l-1.59-58-14.3.8-.79-17.47L249,221.18l1.58,15.09-17.47,2.38,2.39,40.5-77,14.3,11.92,56.38L52.05,385.56l-12.7-40.5L-3.54,361.74l-15.88-43.68-16.28,8.29V447.11c23.23,10.72,87,5.36,87,5.36s3.14,6.86-28.59,44.67c-33.12,39.47-37.87,86.73,4.8,110.72,63.69,35.8,170.1-14.11,248.92-38.06,102.14-31,210.76-41.43,289.46-25.61,1.84.37,3.68.76,5.5,1.16Z" transform="translate(258.59 145.91)"/><path class="cls-17" d="M1266.43,476c-22.16-25.6-46-46.39-60.21-65.66-8.41-11.39-89.56-61.87-88.41-76.89l-23.54-8.17L1117,254.74l-52.11-16.84-17.27,64.83h-17.06l15.21-87.55-58.49,10.73-4,31.09L918,251.66l-3.34,51.73-100.15-2,1.08-46.9-58,.8.88,31.76L726,289.53l-3.19-57.9-14.27,1.19-1.27-17.45L651,221.7l2,15-17.4,2.87,3.5,40.42L562.53,296.4l13.47,56L553,360l7,254.08c43.81-12.24,89.22-31.79,128-44.75,101.24-33.84,209.53-47.24,288.64-33.6,122.13,21.06,205.16,111.36,285.54,103C1332.69,631.46,1317,534.45,1266.43,476Z" transform="translate(258.59 145.91)"/><path id="_Path_3" data-name=" Path 3" class="cls-18" d="M250.1,181.31H-8.51c12.28-2.07,24.29-6.69,36.56-8.76,3.05-.51,6.41-1.22,8.2-3.73s1.4-5.68,1.59-8.65c.86-13.56,16.25-24.09,29.2-20,2,.63,4,1.56,6.07,1.62,7.91.22,10.57-10.11,13.76-17.35a30.27,30.27,0,0,1,54.52-1.85c1.32,2.52,2.47,5.44,5,6.76a11.36,11.36,0,0,0,5.79.8c16.85-.68,36.94-1,46.56,12.88,3.94,5.67,5.79,13.41,12,16.52,2.73,1.38,5.88,1.57,8.82,2.43,5.11,1.51,9.36,5,13.83,7.89A69.14,69.14,0,0,0,270.44,181C259.28,181.47,261.26,180.79,250.1,181.31Z" transform="translate(258.59 145.91)"/><ellipse class="cls-19" cx="1022.65" cy="525.36" rx="17.62" ry="131.9" transform="translate(721.39 1675.45) rotate(-88.05)"/><path class="cls-6" d="M828.69,706.07c2.09-6.61,10.64-8.18,15.82-12.77,4.87-4.32,6.53-11.19,7.07-17.68s.23-13.14,2.26-19.32a26.9,26.9,0,0,1,10.6-13.89c3.51-2.32,7.55-3.79,11-6.2,5.89-4.12,9.58-10.6,13.66-16.52,4.85-7,10.57-13.55,17.61-18.37,4.35-3,10.41-5.19,14.66-2.07,2.8,2.07,3.78,5.81,4.08,9.28.64,7.4-.91,14.82-.8,22.25.14,9.55,2.94,19.6-.94,28.33-3.1,7-9.85,11.54-16.45,15.39-3.77,2.2-7.71,4.39-10.26,7.92-2.29,3.17-3.22,7.08-4.88,10.62a28.12,28.12,0,0,1-17.24,14.81c-5.35,1.59-11.81,1.95-15,6.54-2.51,3.61-1.92,8.57-3.79,12.55-2.63,5.61-9.42,7.94-15.6,8.36S828,734.84,822,736.56c.83.1,8.3-12.77,8.57-14.3C831.55,716.82,826.91,711.71,828.69,706.07Z" transform="translate(258.59 145.91)"/><path class="cls-20" d="M828.69,706.07c2.09-6.61,10.64-8.18,15.82-12.77,4.87-4.32,6.53-11.19,7.07-17.68s.23-13.14,2.26-19.32a26.9,26.9,0,0,1,10.6-13.89c3.51-2.32,7.55-3.79,11-6.2,5.89-4.12,9.58-10.6,13.66-16.52,4.85-7,10.57-13.55,17.61-18.37,4.35-3,10.41-5.19,14.66-2.07,2.8,2.07,3.78,5.81,4.08,9.28.64,7.4-.91,14.82-.8,22.25.14,9.55,2.94,19.6-.94,28.33-3.1,7-9.85,11.54-16.45,15.39-3.77,2.2-7.71,4.39-10.26,7.92-2.29,3.17-3.22,7.08-4.88,10.62a28.12,28.12,0,0,1-17.24,14.81c-5.35,1.59-11.81,1.95-15,6.54-2.51,3.61-1.92,8.57-3.79,12.55-2.63,5.61-9.42,7.94-15.6,8.36S828,734.84,822,736.56c.83.1,8.3-12.77,8.57-14.3C831.55,716.82,826.91,711.71,828.69,706.07Z" transform="translate(258.59 145.91)"/><g class="cls-21"><path class="cls-22" d="M822,736.56s40.14-22.5,47.37-47.94,14.9-34.17,25.63-42.37,19.34-33.71,19.34-33.71" transform="translate(258.59 145.91)"/><path class="cls-22" d="M928.2,634.1s-14.94,9.64-27.87,6.76" transform="translate(258.59 145.91)"/><path class="cls-22" d="M887.42,652.47a53.11,53.11,0,0,1-2.53-28.57" transform="translate(258.59 145.91)"/><path class="cls-22" d="M868.49,689.66s-16.91-16.38-12.37-40.86" transform="translate(258.59 145.91)"/><path class="cls-22" d="M866.06,694.53s-18-15.15-15.22-39.89" transform="translate(258.59 145.91)"/><path class="cls-22" d="M911.18,674.14s-15.94,7.29-36.87.36" transform="translate(258.59 145.91)"/><path class="cls-22" d="M908.66,680.86s-15.17,6.12-36.1-.81" transform="translate(258.59 145.91)"/><path class="cls-22" d="M883.65,713.14s-14.42,11.8-36.3,5.26c0,0-13.83-14.86-6.61-33.24" transform="translate(258.59 145.91)"/></g><path class="cls-23" d="M834.28,735.43a11.66,11.66,0,0,1,2.76-9.28c2.39-2.69,5.88-4.1,8.71-6.32,8-6.3,10.15-18.56,19-23.66a16.82,16.82,0,0,1,15.72-.28c2.21,1.13,4.18,2.73,6.51,3.58.24.09.48.14.72.21a28,28,0,0,1-12.82,8.17c-5.35,1.59-11.81,1.95-15,6.54-2.51,3.61-1.92,8.57-3.79,12.55-2.63,5.61-9.42,7.94-15.6,8.36C838.45,735.44,836.36,735.44,834.28,735.43Z" transform="translate(258.59 145.91)"/><path class="cls-6" d="M880.07,758.09A19.66,19.66,0,0,0,894.41,747c2.27-5,2.61-11.31,6.9-14.77,2.42-2,5.63-2.56,8.53-3.69A37.54,37.54,0,0,0,920.07,722a24.64,24.64,0,0,0,6.31-7.14c1.47-2.83,1.91-6.38.42-9.2-1.94-3.66-6.56-5.15-10.68-4.81s-8,2.1-11.89,3.42-8.25,2.22-12.14.81c-2.33-.84-4.3-2.45-6.51-3.58a16.8,16.8,0,0,0-15.71.28c-8.86,5.1-11,17.36-19,23.66-2.83,2.23-6.33,3.64-8.72,6.33s-8.95,7.53-8.21,11a11.68,11.68,0,0,0,6.49,8.06c5.63,2.56,12.32-.42,17.34,2.94C863.14,757.36,873.14,759.28,880.07,758.09Z" transform="translate(258.59 145.91)"/><path class="cls-24" d="M880.07,758.09A19.66,19.66,0,0,0,894.41,747c2.27-5,2.61-11.31,6.9-14.77,2.42-2,5.63-2.56,8.53-3.69A37.54,37.54,0,0,0,920.07,722a24.64,24.64,0,0,0,6.31-7.14c1.47-2.83,1.91-6.38.42-9.2-1.94-3.66-6.56-5.15-10.68-4.81s-8,2.1-11.89,3.42-8.25,2.22-12.14.81c-2.33-.84-4.3-2.45-6.51-3.58a16.8,16.8,0,0,0-15.71.28c-8.86,5.1-11,17.36-19,23.66-2.83,2.23-6.33,3.64-8.72,6.33s-8.95,7.53-8.21,11a11.68,11.68,0,0,0,6.49,8.06c5.63,2.56,12.32-.42,17.34,2.94C863.14,757.36,873.14,759.28,880.07,758.09Z" transform="translate(258.59 145.91)"/><g class="cls-25"><path class="cls-22" d="M841.32,744.67s16-14.45,33.29-16.5c21.52-2.54,36.71-16.52,36.71-16.52" transform="translate(258.59 145.91)"/><path class="cls-22" d="M907,731.86s-12-.37-21.89-5.73" transform="translate(258.59 145.91)"/><path class="cls-22" d="M873.48,727.92s4.27-18.88,14.86-28.22" transform="translate(258.59 145.91)"/><path class="cls-22" d="M866.21,729.32s3.94-21.84,15.56-31.86" transform="translate(258.59 145.91)"/></g><ellipse class="cls-26" cx="531.67" cy="680.87" rx="87.12" ry="11.46"/><rect class="cls-27" x="513.73" y="637.2" width="59.74" height="46.06"/><path class="cls-28" d="M284.45,536.15,257.18,536l.19-46.06L270,490C273.87,505.71,278,521.37,284.45,536.15Z" transform="translate(258.59 145.91)"/><rect class="cls-29" x="289.47" y="483.36" width="46.06" height="59.74" transform="translate(56.56 969.49) rotate(-89.76)"/><rect class="cls-30" x="464.87" y="636.8" width="59.74" height="46.06"/><polygon class="cls-31" points="495.29 635.8 498.64 635.82 503.8 635.84 503.75 648.58 502.03 647.09 500.31 648.57 498.63 647.11 496.95 648.55 496.91 648.52 496.87 648.55 495.2 647.1 493.52 648.54 491.81 647.05 490.08 648.52 490.13 635.78 495.29 635.8"/><rect class="cls-32" x="260.76" y="443.05" width="40.01" height="53.54" transform="translate(68.36 894.52) rotate(-89.76)"/><path class="cls-33" d="M253.94,476.9a121.29,121.29,0,0,0,21.37,12.92l-21.43-.09Z" transform="translate(258.59 145.91)"/><rect class="cls-34" x="274.16" y="443.12" width="40.01" height="53.54" transform="translate(81.64 907.99) rotate(-89.76)"/><path class="cls-35" d="M267.65,483.67c12.32.4,24.86.15,36.68-3.36a46.53,46.53,0,0,0,16.57-8.42L320.82,490l-53.54-.22v-6.13Z" transform="translate(258.59 145.91)"/><polygon class="cls-36" points="551.67 595.79 553.94 595.8 557.45 595.81 557.42 604.48 556.25 603.47 555.08 604.47 553.94 603.48 552.8 604.46 552.77 604.43 552.74 604.46 551.61 603.47 550.46 604.45 549.3 603.44 548.12 604.44 548.16 595.77 551.67 595.79"/><polygon class="cls-37" points="570.03 636.11 573.37 636.13 578.54 636.15 578.48 648.89 576.77 647.4 575.04 648.88 573.37 647.42 571.69 648.86 571.65 648.83 571.61 648.86 569.94 647.41 568.26 648.85 566.54 647.36 564.82 648.83 564.87 636.09 570.03 636.11"/><path class="cls-38" d="M282.56,526.66c8.51,0,17-.14,25.51-.79,11.64-.89,23.44-2.78,34.26-7l-.08,17.51-59.73-.25Z" transform="translate(258.59 145.91)"/><path class="cls-39" d="M208.36,524.42a370,370,0,0,0,51.17-6.54,41.57,41.57,0,0,0,8.61-2.41l-.09,20.61-59.73-.24Z" transform="translate(258.59 145.91)"/><polygon class="cls-40" points="579.58 595.91 512.79 598.9 512.64 595.63 579.58 595.91"/><polygon class="cls-41" points="526.82 638.84 467.09 638.27 467.1 635.69 526.83 635.94 526.82 638.84"/><polygon class="cls-42" points="601.02 639.15 541.29 638.58 541.3 636 601.03 636.24 601.02 639.15"/><polygon class="cls-43" points="1403.63 535.24 1389.34 665.66 1362.03 671.27 1344.42 607.72 1370.2 515.59 1376.32 502.32 1403.63 535.24"/><polygon class="cls-44" points="1179.81 548.01 1190.78 666.17 1362.03 671.27 1376.32 502.32 1179.81 548.01"/><path class="cls-45" d="M1114.8,391.1l-41.2-5.22-48.83-1.48c-59.58.3-74.09,23.38-103,23.28l2,21.95a24.74,24.74,0,0,0,8.17,1.39,21.65,21.65,0,0,0,12.35-3.86,21.66,21.66,0,0,0,24.69,0,21.66,21.66,0,0,0,24.69,0,21.66,21.66,0,0,0,24.69,0,21.66,21.66,0,0,0,24.69,0,21.68,21.68,0,0,0,24.7,0,21.52,21.52,0,0,0,12.34,3.86c8.62,0,18.29-4.84,21-13.67l11.41,1.13Z" transform="translate(258.59 145.91)"/><path class="cls-43" d="M1062.09,436.8l-4.08,63s27.31,2.81,37.26,4.09l6.13-64.32S1078.17,437.31,1062.09,436.8Z" transform="translate(258.59 145.91)"/><path class="cls-46" d="M1099.06,464.09l-40.77,31.38-.28,4.37,5.8.6,34.31-26.4Z" transform="translate(258.59 145.91)"/><path class="cls-47" d="M1058.79,487.88l41-31.57,1.59-16.7-3.8-.36L1060,468.14Z" transform="translate(258.59 145.91)"/><path class="cls-48" d="M1065.86,493.53l3.65-56.4c-2.56-.14-5.07-.25-7.42-.33l-4.08,63s27.31,2.81,37.26,4.09l.68-7.18C1083.86,495.38,1065.86,493.53,1065.86,493.53Z" transform="translate(258.59 145.91)"/><path class="cls-49" d="M1069.75,445.35c8,.44,16.64,1.14,22.71,1.67l-4.55,47.78c-6.85-.77-15.22-1.66-21.22-2.29l3.06-47.16m-7.66-8.55-4.08,63s27.31,2.81,37.26,4.09l6.13-64.32s-23.23-2.3-39.31-2.81Z" transform="translate(258.59 145.91)"/><path class="cls-43" d="M932.45,438.08l5.61,64.31,37-2.55L972,435.27S944.44,435.53,932.45,438.08Z" transform="translate(258.59 145.91)"/><path class="cls-50" d="M936.48,484.31l36.36-31.38L972,435.27h-.68l-36.38,31.39Z" transform="translate(258.59 145.91)"/><polygon class="cls-51" points="1196.42 645.68 1232.19 614.81 1231.76 605.85 1195.66 637.01 1196.42 645.68"/><path class="cls-52" d="M945.14,494.55l-5-57.63c-2.88.32-5.52.71-7.66,1.16l5.61,64.31,37-2.55-.35-7.33Z" transform="translate(258.59 145.91)"/><path class="cls-49" d="M964.2,443.63l2.3,48.59-21,1.45L941.28,445c7.05-.77,16-1.2,22.92-1.41m7.8-8.36s-27.56.26-39.55,2.81l5.61,64.31,37-2.55L972,435.27Z" transform="translate(258.59 145.91)"/><path class="cls-43" d="M982.21,519.24l-3.57-81.67a528.91,528.91,0,0,1,76.05,1l-5.61,81.67Z" transform="translate(258.59 145.91)"/><path class="cls-53" d="M982.21,519.24l-3.57-81.67a528.91,528.91,0,0,1,76.05,1l-5.61,81.67Z" transform="translate(258.59 145.91)"/><path class="cls-49" d="M1008.3,439.75c14.51,0,29,.55,43.13,1.65l-5.21,75.75-61.07-.93-3.32-75.78c4.5-.26,13.9-.69,26.47-.69h0m0-3.06c-18.18,0-29.66.88-29.66.88l3.57,81.67,66.87,1,5.61-81.67c-17.65-1.47-33.66-1.9-46.39-1.9Z" transform="translate(258.59 145.91)"/><path class="cls-43" d="M1117.73,356.41s-16.33,33.18-16.59,33.95-2.81,14.54-2.81,14.54l14.42,10.44Z" transform="translate(258.59 145.91)"/><path class="cls-54" d="M1117.73,356.41H938.57S932.19,383,906.92,404.9c0,0,116.64.51,191.41,0A127.9,127.9,0,0,0,1117.73,356.41Z" transform="translate(258.59 145.91)"/><path class="cls-43" d="M962.13,356.41c-2.06,30-21.21,48.61-21.22,48.61l24.7.06c14.19-12.81,17.49-36.27,18.22-48.67Z" transform="translate(258.59 145.91)"/><path class="cls-43" d="M1008.07,356.41c-1.83,38.16-17.64,48.61-17.64,48.61v.1H1015l.06-.05c11.3-10.2,15.37-31.87,16.77-48.67Z" transform="translate(258.59 145.91)"/><path class="cls-43" d="M1056.57,356.41c-1.76,38.16-16.89,48.61-16.89,48.61v.09c8.31,0,16.59,0,24.68-.05,11.29-10.2,15.35-31.85,16.76-48.65Z" transform="translate(258.59 145.91)"/><path class="cls-55" d="M1098.33,404.9c-74.68.51-191.11,0-191.4,0,0,.56-.07,5.31-.07,5.87,0,8.94,9.72,17.52,21.71,17.52a21.52,21.52,0,0,0,12.34-3.86,21.68,21.68,0,0,0,24.7,0,21.66,21.66,0,0,0,24.69,0,21.66,21.66,0,0,0,24.69,0,21.66,21.66,0,0,0,24.69,0,21.66,21.66,0,0,0,24.69,0,21.65,21.65,0,0,0,12.35,3.86c10.13,0,21.71-6.68,21.71-18.67,0-.57,0-4.18-.07-4.75Z" transform="translate(258.59 145.91)"/><path class="cls-43" d="M1039.68,405.11v19.32a21.66,21.66,0,0,0,24.69,0V405.06C1056.28,405.09,1048,405.1,1039.68,405.11Z" transform="translate(258.59 145.91)"/><path class="cls-43" d="M990.3,405.12v19.31a21.66,21.66,0,0,0,24.69,0v-19.3Z" transform="translate(258.59 145.91)"/><path class="cls-43" d="M940.91,405v19.41a21.68,21.68,0,0,0,24.7,0V405.08Z" transform="translate(258.59 145.91)"/><path class="cls-56" d="M1016.54,384.1c70,3.83,101.19-27.69,101.19-27.69H938.57S946.48,380.27,1016.54,384.1Z" transform="translate(258.59 145.91)"/><path class="cls-43" d="M1117.73,356.41H938.57s-.09.37-.28,1l179.08,1C1117.49,357.77,1117.62,357.09,1117.73,356.41Z" transform="translate(258.59 145.91)"/><path class="cls-6" d="M373.89,834.05l-10.28-.65c-8.51-.55-17.09-1.1-25.33-3.27-4.11-1.08-8.66-3.13-9.72-7.24-.89-3.43,1.06-6.95,3.37-9.65,1.18-1.38,2.55-2.86,2.53-4.68,0-2.41-2.47-4-4.72-4.9-4.93-1.91-10.27-2.39-15.53-2.94s-10.61-1.21-15.42-3.41-9.06-6.21-10.25-11.36c-.87-3.75,0-7.72,1.44-11.27a109.25,109.25,0,0,1,5.43-10.19,9.51,9.51,0,0,0,1.56-5.06c-.18-2.83-2.59-4.95-4.94-6.53-6.91-4.65-14.08-10.06-18.9-16.85s-6.79-16.28-2.63-23.49c4.26-7.4,13.73-10.36,22.24-9.75a25.24,25.24,0,0,1,8,1.77c7,3,11.56,10,13.65,17.32,1.62,5.65,2.13,11.88,5.69,16.56,3.95,5.19,10.67,7.23,16.81,9.43s12.71,5.44,15,11.55c1.75,4.63.57,9.8-.62,14.61-.85,3.42-1.43,7.1.47,10.08s5.6,3.83,9,4.23,7.09.6,9.8,2.71a11,11,0,0,1,3.8,7.26,32.67,32.67,0,0,1-.26,8.38A114.18,114.18,0,0,0,373.89,834.05Z" transform="translate(258.59 145.91)"/><path class="cls-57" d="M373.89,834.05l-10.28-.65c-8.51-.55-17.09-1.1-25.33-3.27-4.11-1.08-8.66-3.13-9.72-7.24-.89-3.43,1.06-6.95,3.37-9.65,1.18-1.38,2.55-2.86,2.53-4.68,0-2.41-2.47-4-4.72-4.9-4.93-1.91-10.27-2.39-15.53-2.94s-10.61-1.21-15.42-3.41-9.06-6.21-10.25-11.36c-.87-3.75,0-7.72,1.44-11.27a109.25,109.25,0,0,1,5.43-10.19,9.51,9.51,0,0,0,1.56-5.06c-.18-2.83-2.59-4.95-4.94-6.53-6.91-4.65-14.08-10.06-18.9-16.85s-6.79-16.28-2.63-23.49c4.26-7.4,13.73-10.36,22.24-9.75a25.24,25.24,0,0,1,8,1.77c7,3,11.56,10,13.65,17.32,1.62,5.65,2.13,11.88,5.69,16.56,3.95,5.19,10.67,7.23,16.81,9.43s12.71,5.44,15,11.55c1.75,4.63.57,9.8-.62,14.61-.85,3.42-1.43,7.1.47,10.08s5.6,3.83,9,4.23,7.09.6,9.8,2.71a11,11,0,0,1,3.8,7.26,32.67,32.67,0,0,1-.26,8.38A114.18,114.18,0,0,0,373.89,834.05Z" transform="translate(258.59 145.91)"/><path class="cls-58" d="M373.89,834.05l-10.28-.65c-8.51-.55-17.09-1.1-25.33-3.27-4.11-1.08-8.66-3.13-9.72-7.24-.89-3.43,1.06-6.95,3.37-9.65,1.18-1.38,2.55-2.86,2.53-4.68,0-2.41-2.47-4-4.72-4.9-4.93-1.91-10.27-2.39-15.53-2.94s-10.61-1.21-15.42-3.41-9.06-6.21-10.25-11.36c-.87-3.75,0-7.72,1.44-11.27a109.25,109.25,0,0,1,5.43-10.19,9.51,9.51,0,0,0,1.56-5.06c-.18-2.83-2.59-4.95-4.94-6.53-6.91-4.65-14.08-10.06-18.9-16.85s-6.79-16.28-2.63-23.49c4.26-7.4,13.73-10.36,22.24-9.75a25.24,25.24,0,0,1,8,1.77c7,3,11.56,10,13.65,17.32,1.62,5.65,2.13,11.88,5.69,16.56,3.95,5.19,10.67,7.23,16.81,9.43s12.71,5.44,15,11.55c1.75,4.63.57,9.8-.62,14.61-.85,3.42-1.43,7.1.47,10.08s5.6,3.83,9,4.23,7.09.6,9.8,2.71a11,11,0,0,1,3.8,7.26,32.67,32.67,0,0,1-.26,8.38A114.18,114.18,0,0,0,373.89,834.05Z" transform="translate(258.59 145.91)"/><g class="cls-59"><path class="cls-60" d="M346.35,802.86s-19.05-41.31-60.72-82.16" transform="translate(258.59 145.91)"/><path class="cls-60" d="M290.08,768.14a47,47,0,0,0,44.41,13.35" transform="translate(258.59 145.91)"/><path class="cls-60" d="M322.79,733.82s3.52,14.57-3.24,26.26c0,0-13.18,5.73-28.58-5.48" transform="translate(258.59 145.91)"/><path class="cls-60" d="M297.81,733s13.22-14.75,6.82-31.4" transform="translate(258.59 145.91)"/><path class="cls-60" d="M311.56,706.62c3.56,15.78-9.52,31.56-9.52,31.56s-14,9.32-33.28-6.43" transform="translate(258.59 145.91)"/></g><path class="cls-61" d="M328.56,822.89a8.21,8.21,0,0,1,.55-5.26c7.39-2.74,10.51-13.11,11.82-20.42.13-1.92.54-3.83.73-5.74a25.85,25.85,0,0,0-3.88-16.3c-2.48-3.91-6-7.06-8.95-10.59s-5.57-7.75-5.67-12.38a10.73,10.73,0,0,1,3.71-8.3,79.87,79.87,0,0,0,10,4c6.14,2.21,12.71,5.44,15,11.55,1.75,4.63.57,9.8-.62,14.61-.85,3.42-1.43,7.1.47,10.08s5.6,3.83,9,4.23,7.09.6,9.8,2.71a8.92,8.92,0,0,1,2.18,2.52l-.77,1c-3.18,4-6.64,8-8,13-.42,1.56-5.4,12.94-5.72,12.63-2.48-2.49-5.34-4.56-8.06-6.8l-10.63,17-1.3-.31C334.17,829.05,329.62,827,328.56,822.89Z" transform="translate(258.59 145.91)"/><path class="cls-6" d="M376.69,794.68A106.94,106.94,0,0,0,384,784.31c2.27-3.68,4.34-7.57,5.13-11.81a21.69,21.69,0,0,0-9.21-21.6c-2.12-1.39-4.55-2.44-6.19-4.37-2.12-2.49-2.55-6-2.2-9.28s1.37-6.4,1.8-9.65a18.18,18.18,0,0,0-2-11.77c-2.1-3.48-6.07-6-10.11-5.6-4.41.4-8,4-9.58,8.2s-1.44,8.72-1.06,13.13a23.58,23.58,0,0,1,0,6.28,7,7,0,0,1-3.42,5c-3.51,1.73-7.66-1-11.56-.59-4.6.45-7.78,5.38-7.68,10s2.68,8.84,5.67,12.38,6.47,6.68,9,10.59a25.88,25.88,0,0,1,3.88,16.29c-.26,2.6-.92,5.17-.75,7.77.32,4.67,3.26,8.77,6.67,12s7.39,5.76,10.69,9.08c.31.31,5.3-11.07,5.72-12.63C370.05,802.68,373.51,798.68,376.69,794.68Z" transform="translate(258.59 145.91)"/><path class="cls-62" d="M376.69,794.68A106.94,106.94,0,0,0,384,784.31c2.27-3.68,4.34-7.57,5.13-11.81a21.69,21.69,0,0,0-9.21-21.6c-2.12-1.39-4.55-2.44-6.19-4.37-2.12-2.49-2.55-6-2.2-9.28s1.37-6.4,1.8-9.65a18.18,18.18,0,0,0-2-11.77c-2.1-3.48-6.07-6-10.11-5.6-4.41.4-8,4-9.58,8.2s-1.44,8.72-1.06,13.13a23.58,23.58,0,0,1,0,6.28,7,7,0,0,1-3.42,5c-3.51,1.73-7.66-1-11.56-.59-4.6.45-7.78,5.38-7.68,10s2.68,8.84,5.67,12.38,6.47,6.68,9,10.59a25.88,25.88,0,0,1,3.88,16.29c-.26,2.6-.92,5.17-.75,7.77.32,4.67,3.26,8.77,6.67,12s7.39,5.76,10.69,9.08c.31.31,5.3-11.07,5.72-12.63C370.05,802.68,373.51,798.68,376.69,794.68Z" transform="translate(258.59 145.91)"/><path class="cls-63" d="M376.69,794.68A106.94,106.94,0,0,0,384,784.31c2.27-3.68,4.34-7.57,5.13-11.81a21.69,21.69,0,0,0-9.21-21.6c-2.12-1.39-4.55-2.44-6.19-4.37-2.12-2.49-2.55-6-2.2-9.28s1.37-6.4,1.8-9.65a18.18,18.18,0,0,0-2-11.77c-2.1-3.48-6.07-6-10.11-5.6-4.41.4-8,4-9.58,8.2s-1.44,8.72-1.06,13.13a23.58,23.58,0,0,1,0,6.28,7,7,0,0,1-3.42,5c-3.51,1.73-7.66-1-11.56-.59-4.6.45-7.78,5.38-7.68,10s2.68,8.84,5.67,12.38,6.47,6.68,9,10.59a25.88,25.88,0,0,1,3.88,16.29c-.26,2.6-.92,5.17-.75,7.77.32,4.67,3.26,8.77,6.67,12s7.39,5.76,10.69,9.08c.31.31,5.3-11.07,5.72-12.63C370.05,802.68,373.51,798.68,376.69,794.68Z" transform="translate(258.59 145.91)"/><path class="cls-64" d="M363,820.36c-3.3-3.32-7.27-5.88-10.69-9.08s-6.35-7.29-6.67-12c-.17-2.6.49-5.17.75-7.77a25.89,25.89,0,0,0-1.1-10.31,24.53,24.53,0,0,1,7.22-7.75c5.88-4,13.87-5,20.28-2,4.81,2.3,8.63,6.66,12.75,10.11-.5.9-1,1.79-1.57,2.66a106.46,106.46,0,0,1-7.26,10.37c-3.18,4-6.64,8-8,13C368.28,809.29,363.29,820.67,363,820.36Z" transform="translate(258.59 145.91)"/><path class="cls-60" d="M362,819.92s6.2-37.94.33-87" transform="translate(258.59 145.91)"/><path class="cls-60" d="M344.52,759s-2,16.25,20.54,18.91c0,0,16.54-4.58,17-18.07" transform="translate(258.59 145.91)"/><path class="cls-60" d="M364.13,756.24S351,753,353.62,742.86" transform="translate(258.59 145.91)"/><path class="cls-60" d="M363.74,795.54s-11.13.14-13.53-12" transform="translate(258.59 145.91)"/></g><path class="cls-65" d="M27.7,583.81c3.32,3.71,9.3,6.49,13,6.44-2.62,2.26-7.42,8.37-6.44,13-1.69-4.09-8.85-6.57-12.95-6.45C24.72,594.07,27.9,587.63,27.7,583.81Z" transform="translate(258.59 145.91)"/><path class="cls-66" d="M30.63,549.42c-1.45,3.18-1.55,7.82-.48,10.15-2.19-1-7.48-2.4-10.15-.48,2.15-2.24,1.72-7.55.48-10.15C23.19,550.4,28.23,550.63,30.63,549.42Z" transform="translate(258.59 145.91)"/><path class="cls-67" d="M59.39,560.56c-1.45,3.18-1.55,7.82-.48,10.15-2.19-1-7.48-2.4-10.15-.48,2.15-2.24,1.72-7.55.48-10.15C52,561.54,57,561.77,59.39,560.56Z" transform="translate(258.59 145.91)"/><path class="cls-68" d="M279.63,596.17c-3.07,1.67-5.93,5.32-6.48,7.82-1.12-2.15-4.54-6.41-7.83-6.48,3.07-.5,5.91-5,6.48-7.83C273.09,592.48,277,595.69,279.63,596.17Z" transform="translate(258.59 145.91)"/><path class="cls-69" d="M295.14,611.53a10.39,10.39,0,0,0-6.51,3.54c-.17-1.77-1.33-5.57-3.53-6.51,2.21.49,5.35-1.78,6.51-3.53C291.71,607.27,293.48,610.49,295.14,611.53Z" transform="translate(258.59 145.91)"/><ellipse class="cls-70" cx="151.39" cy="718.13" rx="121.56" ry="28.54" transform="translate(203.82 159.68) rotate(-4.41)"/><path class="cls-71" d="M146,624c-22.11-.82-40-19.37-41.74-43.13-1.8-25.41,16.29-48.41,39.91-50.09,1.45-.09,2.59.83,4,.89,22.12.82,40.06,19.36,41.75,43.13a47.84,47.84,0,0,1-10.07,33.28,41.23,41.23,0,0,1-29.51,15.85A39.25,39.25,0,0,1,146,624Zm1.74-79.75q-1.5-.07-3,0c-16.7,1.18-29.22,17.19-27.91,35.68,1.23,17.34,14,30.85,29.65,31.44q1.5.07,3,0A28.78,28.78,0,0,0,170,600.22a35.2,35.2,0,0,0,7.36-24.55c-1.25-17.34-14-30.86-29.67-31.44Z" transform="translate(258.59 145.91)"/><path class="cls-72" d="M150.5,620.63c-21.83-.81-39.54-19.11-41.2-42.57-1.78-25.09,15.75-46.85,39.07-48.5a41.28,41.28,0,0,1,4.31-.08c21.83.82,39.55,19.13,41.21,42.58A47.23,47.23,0,0,1,184,604.92a40.65,40.65,0,0,1-29.14,15.64A37.32,37.32,0,0,1,150.5,620.63Zm1.72-78.72a25,25,0,0,0-3,.05c-16.49,1.16-28.85,17-27.56,35.22,1.22,17.12,13.8,30.46,29.28,31,1,0,2,0,3,0a28.4,28.4,0,0,0,20.28-11A34.74,34.74,0,0,0,181.49,573c-1.21-17.17-13.8-30.52-29.27-31.09Z" transform="translate(258.59 145.91)"/><path class="cls-73" d="M193.89,572.06c-1.66-23.45-19.38-41.76-41.21-42.58a41.28,41.28,0,0,0-4.31.08,39.55,39.55,0,0,0-14.5,3.88A39.58,39.58,0,0,1,146,530.61a41.28,41.28,0,0,1,4.31-.08c21.83.82,39.55,19.13,41.21,42.58A47.22,47.22,0,0,1,181.59,606,42,42,0,0,1,167,617.76a41.76,41.76,0,0,0,17-12.84A47.23,47.23,0,0,0,193.89,572.06Z" transform="translate(258.59 145.91)"/><path class="cls-74" d="M118.48,608.64c-13.82-1.86-25.3-3.57-25.3-3.57L76,574.28,60,587.72c-2.25,2.6-3.6,4.86-3.09,9.2L70,709c.46,3.91,2.34,6.06,4.19,7l14.34,9.55A13.94,13.94,0,0,0,98,727.62l16.07-2.26Z" transform="translate(258.59 145.91)"/><path class="cls-75" d="M118.48,608.64c-13.82-1.86-25.3-3.57-25.3-3.57L76,574.28,60,587.72c-2.25,2.6-3.6,4.86-3.09,9.2L70,709c.46,3.91,2.34,6.06,4.19,7l14.34,9.55A13.94,13.94,0,0,0,98,727.62l16.07-2.26Z" transform="translate(258.59 145.91)"/><path class="cls-76" d="M241.12,659.4s-7.9-61.36-12-97.13c-.44-3.87-2.76-4.55-5.55-4.33-9.47.75-20.61,1.39-30.08,3.07l-11,2.34c-10.71,2.7-18.88,5.18-26.6,11.48-9.66-4.76-22.31-4.93-33.8-5.06l-11.22.32c-11.44.71-21.82,2.21-32.7,3.5a4.23,4.23,0,0,0-2.6,1,3.1,3.1,0,0,0-.41,2.48l16.9,144.31h0a6.94,6.94,0,0,0,7.69,6.08h.07l62.15-8,13-1.59h0l23.51-3C225.44,711.8,244.53,689.4,241.12,659.4Z" transform="translate(258.59 145.91)"/><path class="cls-77" d="M155.94,574.83c-9.66-4.76-22.31-4.93-33.8-5.06l-11.22.32c-11.44.71-21.82,2.21-32.7,3.5a4.23,4.23,0,0,0-2.6,1,3.1,3.1,0,0,0-.41,2.48L92.07,721.43a6.94,6.94,0,0,0,7.69,6.08h.07L175,717.86C173,670.06,156.1,574.71,155.94,574.83Z" transform="translate(258.59 145.91)"/><path class="cls-78" d="M241.12,659.4s-7.9-61.36-12-97.13c-.44-3.87-2.76-4.55-5.55-4.33-9.47.75-20.61,1.39-30.08,3.07l-11,2.34c-10.71,2.7-18.88,5.18-26.6,11.48-9.66-4.76-22.31-4.93-33.8-5.06l-11.22.32c-11.44.71-21.82,2.21-32.7,3.5a4.23,4.23,0,0,0-2.6,1,3.1,3.1,0,0,0-.41,2.48l16.9,144.31h0a6.94,6.94,0,0,0,7.69,6.08h.07l62.15-8,13-1.59h0l23.51-3C225.44,711.8,244.53,689.4,241.12,659.4Z" transform="translate(258.59 145.91)"/><path class="cls-79" d="M230.83,576.66c-.6-5.08-1.17-9.93-1.67-14.39-.44-3.87-2.76-4.55-5.55-4.33-9.47.75-20.61,1.39-30.08,3.07l-11,2.34c-10.71,2.7-18.88,5.18-26.6,11.48-9.66-4.76-22.31-4.93-33.8-5.06l-11.22.32c-6,.37-11.62.95-17.22,1.61,10.18-.45,50.81-1.63,63.28,7.66,0,0,16-16.12,64.73-17.61a5.88,5.88,0,0,1,5.63,4C229.35,570.93,230.46,575.62,230.83,576.66Z" transform="translate(258.59 145.91)"/><path class="cls-80" d="M178,656.7c-32.27.21-58.14,23.59-57.91,55.86a58.49,58.49,0,0,0,1.38,12.16h0l77-9.87c14.91-1.69,27.4-9.3,35-20.84C225.37,671.33,203.53,656.54,178,656.7Z" transform="translate(258.59 145.91)"/><path class="cls-81" d="M120.46,718.28v.47q.36,3,1,6l54.46-7c-.74-18.28-4.07-40-7-60.27-22.6,3.66-40.73,18.34-46.74,39.26l-.15.55c-.16.58-.31,1.17-.45,1.76-.08.33-.16.66-.23,1-.11.5-.21,1-.31,1.51s-.15.87-.22,1.31-.15.88-.21,1.33-.13,1-.19,1.55-.09.78-.13,1.17c0,.61-.09,1.23-.13,1.85v1c0,.94-.06,1.9-.06,2.86a30.72,30.72,0,0,0,.11,3.14C120.29,716.56,120.37,717.42,120.46,718.28Z" transform="translate(258.59 145.91)"/><path class="cls-82" d="M120.46,718.28v.47q.36,3,1,6l54.46-7c-.74-18.28-4.07-40-7-60.27-22.6,3.66-40.73,18.34-46.74,39.26l-.15.55c-.16.58-.31,1.17-.45,1.76-.08.33-.16.66-.23,1-.11.5-.21,1-.31,1.51s-.15.87-.22,1.31-.15.88-.21,1.33-.13,1-.19,1.55-.09.78-.13,1.17c0,.61-.09,1.23-.13,1.85v1c0,.94-.06,1.9-.06,2.86a30.72,30.72,0,0,0,.11,3.14C120.29,716.56,120.37,717.42,120.46,718.28Z" transform="translate(258.59 145.91)"/><path class="cls-83" d="M194.59,586.5a35.7,35.7,0,1,1-30.29,40.39l0-.22a35.34,35.34,0,0,1,29.83-40.1l.49-.07" transform="translate(258.59 145.91)"/><path class="cls-84" d="M194.59,586.5a35.7,35.7,0,1,1-30.29,40.39l0-.22a35.34,35.34,0,0,1,29.83-40.1l.49-.07" transform="translate(258.59 145.91)"/><path class="cls-85" d="M195.2,591.13a31,31,0,1,1-26.33,35l0-.13a30.72,30.72,0,0,1,25.93-34.86l.42-.06" transform="translate(258.59 145.91)"/><path class="cls-86" d="M206.93,644a30.7,30.7,0,0,1-34.47-26.39l0-.22a31.3,31.3,0,0,1,.64-11.57,31.14,31.14,0,0,0-4.22,20.28,30.63,30.63,0,0,0,60.21,3.26A30.63,30.63,0,0,1,206.93,644Z" transform="translate(258.59 145.91)"/><path class="cls-87" d="M179.94,633s-.42-14.55,16.48-19.17,22.84,7.87,22.84,7.87-8.39-5.42-21.66-1.8S179.94,633,179.94,633Z" transform="translate(258.59 145.91)"/><path class="cls-83" d="M121.32,594.21a38.29,38.29,0,1,1-32.84,43v0a38.28,38.28,0,0,1,32.85-43" transform="translate(258.59 145.91)"/><path class="cls-88" d="M121.32,594.21a38.29,38.29,0,1,1-32.84,43v0a38.28,38.28,0,0,1,32.85-43" transform="translate(258.59 145.91)"/><path class="cls-85" d="M122,599a33.46,33.46,0,1,1-28.7,37.62h0A33.45,33.45,0,0,1,122,599h0" transform="translate(258.59 145.91)"/><path class="cls-87" d="M151.56,635.15s-5.62-14.36-24-11.86-19,17.13-19,17.13,6-8.76,20.39-10.73S151.56,635.15,151.56,635.15Z" transform="translate(258.59 145.91)"/><path class="cls-89" d="M136.76,655.62a33.46,33.46,0,0,1-35.62-45.38,33.46,33.46,0,1,0,56.43,34.13A33.26,33.26,0,0,1,136.76,655.62Z" transform="translate(258.59 145.91)"/><path class="cls-90" d="M153.63,660.92s-1.91,26.77,26.68,22.79c-.7-9.79-.88-18.76-.88-18.76Z" transform="translate(258.59 145.91)"/><path class="cls-91" d="M153.3,661.36s3.77,26.82,31.63,16.89c0,0-1.13-11.15-1.44-21.06C176.67,651.34,153.3,661.36,153.3,661.36Z" transform="translate(258.59 145.91)"/><path class="cls-92" d="M171.21,680.32c-16.53-4.59-10.94-17.1-10.94-17.1l-2.06-3.75a51,51,0,0,0-4.91,1.89S155.75,678.71,171.21,680.32Z" transform="translate(258.59 145.91)"/><path class="cls-93" d="M154.65,661.05s9.48,17.82,27.91,15.38c0,0-1.38-9.73-1.66-18.55C174.83,652.68,154.65,661.05,154.65,661.05Z" transform="translate(258.59 145.91)"/><path class="cls-94" d="M167.12,662.85s2.85,5.08,8,6.1c-1.13-4.28-1.76-7.8-1.76-7.8Z" transform="translate(258.59 145.91)"/><path class="cls-95" d="M153.45,660.35s1.33-14.19,17.06-17.52c13.34-2.06,22.39,11.86,22.39,11.86a23.67,23.67,0,0,1-6.46,4C174.73,663.51,151.27,670.71,153.45,660.35Z" transform="translate(258.59 145.91)"/><path class="cls-96" d="M192.9,654.69l-.09-.14c-2.25,1.17-9.24,4.21-23.07,5.6s-13.53-5.58-12.87-8.56a20.65,20.65,0,0,0-3.42,8.76c-2.18,10.36,21.28,3.16,33-1.63A23.87,23.87,0,0,0,192.9,654.69Z" transform="translate(258.59 145.91)"/><path class="cls-97" d="M179.92,648.67a23.49,23.49,0,0,0,6.78-.69c-3.93-3.22-9.53-6.18-16.19-5.15a26.94,26.94,0,0,0-3.3.93C169.68,646.49,174.41,648.44,179.92,648.67Z" transform="translate(258.59 145.91)"/><path class="cls-98" d="M239.45,647.65s-9.85,20.83-17.66,22.8-20.38,5.37-22.52,23,2.58,20.89,2.58,20.89,11.69-2.18,17.91-6.87,16.23-25,16.23-25l6.11-16.06Z" transform="translate(258.59 145.91)"/><path class="cls-99" d="M281.28,630.36l-5.91-4.13-8.11,11.62,5.91,4.13h0c-.29.42.06,1.18.78,1.68h0c.73.51,1.55.58,1.85.16h0l2.5,1.75a.57.57,0,0,0,.78-.14l1.79-2.57a1.47,1.47,0,0,1,1.69-2.41l1.82-2.6a1.48,1.48,0,0,1-.37-2.05,1.46,1.46,0,0,1,1.76-.52.41.41,0,0,0,.51-.16l.6-.85-3-2.07c-.29.42-1.12.36-1.85-.15h0C281.34,631.53,281,630.78,281.28,630.36Z" transform="translate(258.59 145.91)"/><rect class="cls-100" x="267.8" y="629.65" width="14.17" height="7.21" transform="translate(-143.1 641.94) rotate(-55.07)"/><path class="cls-101" d="M282.68,631.16h0c-.73-.5-1.08-1.25-.78-1.67l-8.11,11.6c-.29.42.06,1.17.78,1.68h0c.73.5,1.55.57,1.85.15l8.1-11.6C284.23,631.74,283.4,631.67,282.68,631.16Z" transform="translate(258.59 145.91)"/><path class="cls-102" d="M276.41,642.94l2.56,1.79a.48.48,0,0,0,.67-.12h0l1.22-1.75a.59.59,0,0,0,0-.71,1.47,1.47,0,0,1,2-2.11l1.78-2.56a1.47,1.47,0,0,1,1.38-2.57.47.47,0,0,0,.54-.17l.59-.85a.62.62,0,0,0-.1-.86l-.05,0-2.45-1.71Z" transform="translate(258.59 145.91)"/><path class="cls-103" d="M277.2,624.56l-37.57,53.81-4.9-3.42,37.58-53.8a2.62,2.62,0,0,1,3.65-.65h0l.6.42a2.6,2.6,0,0,1,.64,3.63Z" transform="translate(258.59 145.91)"/><path class="cls-104" d="M229.75,679.11l5.75-8.24a2.41,2.41,0,0,1,3.34-.6h0l3.81,2.67a2.39,2.39,0,0,1,.6,3.34h0l-5.76,8.24h0l-7.73-5.4Z" transform="translate(258.59 145.91)"/><path class="cls-105" d="M230.25,682l5.77-8.26a2.39,2.39,0,0,1,3.34-.59h0l.39.27a2.4,2.4,0,0,1,.6,3.34h0L234.58,685h0l-4.33-3Z" transform="translate(258.59 145.91)"/><circle class="cls-106" cx="484.33" cy="838.95" r="17.58"/><circle class="cls-107" cx="224.54" cy="694.78" r="17.58" transform="translate(-27.83 319.1) rotate(-26.5)"/><circle class="cls-108" cx="483.12" cy="840.7" r="13.57"/><path class="cls-109" d="M217.37,705a13.58,13.58,0,0,1-3.65-18.45l-.32.43a13.57,13.57,0,0,0,21.92,16l.33-.47c.1-.14.2-.29.29-.44A13.57,13.57,0,0,1,217.37,705Z" transform="translate(258.59 145.91)"/><path class="cls-110" d="M223.76,695.88a3.44,3.44,0,1,1-4.79.85h0A3.45,3.45,0,0,1,223.76,695.88Z" transform="translate(258.59 145.91)"/><path class="cls-111" d="M82.67,206.05c4.59-29.66,17-63.36,39.4-80.28,25.22-19.06,44.84-22.34,39.89-35.44-3.44-9.11-30.74-16.43-78.12,47.75-9.37,12.7-19.73,41.07-16.21,79.27C68.9,231.11,77.91,236.77,82.67,206.05Z" transform="translate(258.59 145.91)"/><path class="cls-112" d="M232.69,365.06a.34.34,0,0,0,.31-.27l3.21-17.63a.33.33,0,0,0-.65-.11l-2.82,15.51L231,348.85a.33.33,0,1,0-.66.08h0l2,15.84a.33.33,0,0,0,.32.29Z" transform="translate(258.59 145.91)"/><polygon class="cls-113" points="497.12 507.07 485.64 508.59 476.4 515.62 481.5 528.85 493.31 527.9 502.37 520.71 497.12 507.07"/><polygon class="cls-114" points="492.48 507.68 484.09 514.54 488.82 528.26 484.81 528.59 479.81 515.16 488.44 508.22 492.48 507.68"/><path class="cls-112" d="M222.26,367.62h.12a.34.34,0,0,0,.19-.37L220,353.89a.33.33,0,0,0-.35-.31.33.33,0,0,0-.31.35.29.29,0,0,0,0,.09l2.33,12-7.88-9.75a.33.33,0,1,0-.52.42h0l8.71,10.8A.33.33,0,0,0,222.26,367.62Z" transform="translate(258.59 145.91)"/><polygon class="cls-115" points="497.12 507.07 497.8 508.84 497.77 510.26 487.94 513.96 476.4 515.62 485.64 508.59 497.12 507.07"/><polygon class="cls-116" points="488.44 508.22 491.58 507.8 492.48 507.68 484.12 514.51 479.85 515.12 488.44 508.22"/><polygon class="cls-116" points="497.12 507.07 502.37 520.71 493.31 527.9 487.94 513.96 497.12 507.07"/><polygon class="cls-113" points="494.15 509.39 500.3 522.35 497.1 524.89 490.5 512.09 479.17 513.51 482.7 510.83 494.15 509.39"/><polygon class="cls-115" points="490.42 512.1 494.01 509.41 494.15 509.39 500.3 522.35 499.35 523.1 497.1 524.89 490.5 512.09 490.42 512.1"/><path class="cls-117" d="M216.15,334.59c8.6-3.3,18.14.73,21.33,9a15.2,15.2,0,0,1,.78,2.73,52.55,52.55,0,0,1-30.63,11.79,15.11,15.11,0,0,1-1.26-2.55C203.18,347.29,207.56,337.9,216.15,334.59Z" transform="translate(258.59 145.91)"/><path class="cls-118" d="M236.11,340.88c-2,4.16-6.88,8.28-13.29,10.75s-13,2.66-17.29.83a16.8,16.8,0,0,1,30.58-11.58Z" transform="translate(258.59 145.91)"/><path class="cls-119" d="M225.81,350.35c.39,1,.76,2,1.1,3v.07q-1.5.68-3,1.26c-1,.39-2.06.76-3.09,1.09h0q-.61-1.44-1.2-3c-3.61-9.37-5.13-17.5-3.4-18.17S222.21,341,225.81,350.35Z" transform="translate(258.59 145.91)"/><path class="cls-120" d="M225.8,350.31a32.89,32.89,0,0,1-6.28,2.39c-3.58-9.34-5.09-17.44-3.37-18.11S222.19,341,225.8,350.31Z" transform="translate(258.59 145.91)"/><path class="cls-119" d="M216.15,334.59c7-2.71,15.64,2.57,19.19,11.8.23.6.43,1.19.61,1.78a44.7,44.7,0,0,1-3.8,2.52c-.26-.9-.56-1.81-.91-2.72C227.69,338.74,220.93,332.75,216.15,334.59Z" transform="translate(258.59 145.91)"/><path class="cls-121" d="M234.18,343.84a22.46,22.46,0,0,1-3.3,3.24c-3.64-8.72-10.1-14.27-14.73-12.49C222.52,332.14,230.15,336.22,234.18,343.84Z" transform="translate(258.59 145.91)"/><path class="cls-119" d="M213.93,354.63c.35.91.73,1.79,1.14,2.63a44.94,44.94,0,0,1-4.5.68c-.27-.56-.52-1.14-.75-1.73-3.55-9.23-.71-18.91,6.33-21.62C211.38,336.43,210.38,345.4,213.93,354.63Z" transform="translate(258.59 145.91)"/><path class="cls-122" d="M213.57,353.66a21.73,21.73,0,0,1-4.63-.24c-2.06-8.31.87-16.39,7.21-18.83C211.54,336.37,210.45,344.78,213.57,353.66Z" transform="translate(258.59 145.91)"/><path class="cls-123" d="M216.46,335.4A18.34,18.34,0,0,0,206,345.33a17,17,0,0,1,24.85-9.54A18.31,18.31,0,0,0,216.46,335.4Z" transform="translate(258.59 145.91)"/><path class="cls-112" d="M963.45,141.87a.5.5,0,0,0,.65,0l22.72-17.16a.52.52,0,0,0-.64-.83L966.2,139,979,121.13a.54.54,0,0,0-.13-.73.52.52,0,0,0-.73.11h0l-14.73,20.65a.52.52,0,0,0,.06.68Z" transform="translate(258.59 145.91)"/><polygon class="cls-113" points="1233.06 289.51 1218.01 278.93 1199.64 277.21 1191.35 298.16 1206.18 309.76 1224.52 311.1 1233.06 289.51"/><polygon class="cls-114" points="1226.98 285.23 1209.79 284.22 1200.55 305.36 1195.51 301.42 1204.12 280.34 1221.68 281.51 1226.98 285.23"/><path class="cls-112" d="M948.5,133.63a.4.4,0,0,0,.18.1.5.5,0,0,0,.6-.22l11.33-18.37a.53.53,0,0,0-.17-.72.52.52,0,0,0-.71.15v0l-10.23,16.58,1.28-19.89a.53.53,0,0,0-.65-.37.54.54,0,0,0-.35.31l-1.41,22A.49.49,0,0,0,948.5,133.63Z" transform="translate(258.59 145.91)"/><polygon class="cls-115" points="1233.06 289.51 1231.95 292.32 1230.38 293.94 1214.91 287.69 1199.64 277.21 1218.01 278.93 1233.06 289.51"/><polygon class="cls-116" points="1221.68 281.51 1225.8 284.4 1226.98 285.23 1209.85 284.22 1204.2 280.34 1221.68 281.51"/><polygon class="cls-116" points="1233.06 289.51 1224.52 311.1 1206.18 309.76 1214.91 287.69 1233.06 289.51"/><polygon class="cls-113" points="1227.09 289.03 1220.34 310.79 1213.87 310.32 1219.91 288.26 1205.14 277.72 1212.16 278.38 1227.09 289.03"/><polygon class="cls-115" points="1219.81 288.18 1226.91 288.89 1227.09 289.03 1220.34 310.79 1218.41 310.66 1213.87 310.32 1219.91 288.26 1219.81 288.18"/><path class="cls-124" d="M976.9,88.45c13.61,5.38,20.43,20.38,15.23,33.5a24.1,24.1,0,0,1-2,4,83.29,83.29,0,0,1-48.5-19.19,24.19,24.19,0,0,1,1.28-4.33C948.07,89.34,963.3,83.07,976.9,88.45Z" transform="translate(258.59 145.91)"/><path class="cls-125" d="M993.47,117.28c-6.84,2.69-17,2.28-27.1-1.74-10.33-4.08-18.08-10.88-21.12-17.64C951.82,88,965,83.74,976.9,88.45S995.63,105.45,993.47,117.28Z" transform="translate(258.59 145.91)"/><path class="cls-119" d="M971.24,117.27c-.64,1.61-1.3,3.18-2,4.7l-.1.08q-2.43-.81-4.88-1.77t-4.77-2c-2.32-1,0-.08,0-.13.56-1.55,1.16-3.13,1.8-4.76,5.87-14.83,12.84-26,15.58-24.89S977.1,102.44,971.24,117.27Z" transform="translate(258.59 145.91)"/><path class="cls-126" d="M971.26,117.21a47.87,47.87,0,0,1-4.89-1.67,51.22,51.22,0,0,1-5-2.29c5.86-14.79,12.81-25.88,15.54-24.8S977.11,102.4,971.26,117.21Z" transform="translate(258.59 145.91)"/><path class="cls-119" d="M976.9,88.45c11.16,4.42,15.52,19.84,9.74,34.45-.37.94-.78,1.85-1.21,2.74-2.33-.26-4.72-.64-7.15-1.15.66-1.33,1.29-2.72,1.86-4.16C985.92,105.72,984.47,91.45,976.9,88.45Z" transform="translate(258.59 145.91)"/><path class="cls-127" d="M988,118.67a35.43,35.43,0,0,1-7.35.22c5.14-14.1,3.54-27.54-3.78-30.44C987,92.44,991.52,105.42,988,118.67Z" transform="translate(258.59 145.91)"/><path class="cls-119" d="M952.73,109.49c-.57,1.44-1.06,2.88-1.49,4.3-2.12-1.29-4.13-2.65-6-4.06.29-.94.62-1.88,1-2.82C952,92.3,965.74,84,976.9,88.45,969.34,85.46,958.52,94.87,952.73,109.49Z" transform="translate(258.59 145.91)"/><path class="cls-128" d="M953.36,108a34.62,34.62,0,0,1-5.16-5.25c6.54-11.94,18.66-18.23,28.7-14.26C969.6,85.56,959.27,94.23,953.36,108Z" transform="translate(258.59 145.91)"/><path class="cls-129" d="M976.4,89.73a29.16,29.16,0,0,0-22.89.38,27.09,27.09,0,0,1,39.32,15.59A29.17,29.17,0,0,0,976.4,89.73Z" transform="translate(258.59 145.91)"/><path class="cls-130" d="M1058.27,663.75c6.67,26.72,28.25,22.69,1.73,68.72-12.14,21.08,8.73,13.37,15,2s21.21-28.62,11.54-48.07C1069.39,652,1052.73,641.57,1058.27,663.75Z" transform="translate(258.59 145.91)"/><path class="cls-131" d="M1029.64,634s11.66,14.51,20.67,10.59-7.15-15.26-11.43-18.14S1021.2,620.49,1029.64,634Z" transform="translate(258.59 145.91)"/></g></g></svg>